M48
; DRILL file {KiCad 6.0.8-f2edbf62ab~116~ubuntu20.04.1} date Tue 29 Nov 2022 02:25:37 PM CST
; FORMAT={-:-/ absolute / metric / decimal}
; #@! TF.CreationDate,2022-11-29T14:25:37-06:00
; #@! TF.GenerationSoftware,Kicad,Pcbnew,6.0.8-f2edbf62ab~116~ubuntu20.04.1
; #@! TF.FileFunction,Plated,1,2,PTH
FMAT,2
METRIC
; #@! TA.AperFunction,Plated,PTH,ViaDrill
T1C0.500
; #@! TA.AperFunction,Plated,PTH,ComponentDrill
T2C0.950
; #@! TA.AperFunction,Plated,PTH,ComponentDrill
T3C1.000
%
G90
G05
T1
X68.764Y-65.093
X68.8Y-80.6
X70.029Y-63.6
X70.4Y-66.2
X70.6Y-56.4
X70.6Y-57.8
X71.671Y-64.871
X72.0Y-59.4
X73.4Y-59.4
X74.4Y-79.6
X75.6Y-77.599
X76.0Y-67.4
X78.0Y-57.2
X78.0Y-59.6
X78.6Y-75.4
X79.4Y-96.2
X79.8Y-93.4
X80.8Y-70.2
X80.8Y-75.2
X80.8Y-78.8
X81.0Y-93.4
X81.0Y-96.2
X81.6Y-57.2
X81.6Y-59.6
X82.6Y-66.4
X82.6Y-80.2
X86.2Y-97.2
X86.6Y-93.874
X87.2Y-78.0
X87.4Y-90.2
X87.8Y-75.2
X87.935Y-95.865
X89.2Y-78.0
X91.0Y-51.8
X91.2Y-78.0
X91.4Y-88.6
X91.6Y-97.0
X94.4Y-54.0
X97.8Y-51.6
X97.8Y-54.2
T2
X54.3Y-87.4
X54.3Y-89.9
X54.3Y-92.4
X54.3Y-94.9
X96.7Y-72.85
X96.7Y-75.35
X96.7Y-77.85
X96.7Y-80.35
X96.7Y-89.05
X96.7Y-91.55
X96.7Y-94.05
X96.7Y-96.55
T3
X54.2Y-66.3
X54.2Y-68.8
X54.3Y-77.0
X54.3Y-79.5
X61.1Y-66.25
X61.1Y-68.75
X66.645Y-73.55
X66.645Y-76.09
X69.185Y-73.55
X69.185Y-76.09
X71.725Y-73.55
X71.725Y-76.09
T3
G00X57.85Y-54.1
M15
G01X57.85Y-56.3
M16
G05
G00X62.35Y-60.0
M15
G01X60.15Y-60.0
M16
G05
G00X64.15Y-53.9
M15
G01X64.15Y-56.5
M16
G05
T0
M30
