%TF.GenerationSoftware,KiCad,Pcbnew,6.0.8-f2edbf62ab~116~ubuntu20.04.1*%
%TF.CreationDate,2022-11-29T14:24:58-06:00*%
%TF.ProjectId,glasses-display,676c6173-7365-4732-9d64-6973706c6179,rev?*%
%TF.SameCoordinates,Original*%
%TF.FileFunction,Copper,L1,Top*%
%TF.FilePolarity,Positive*%
%FSLAX46Y46*%
G04 Gerber Fmt 4.6, Leading zero omitted, Abs format (unit mm)*
G04 Created by KiCad (PCBNEW 6.0.8-f2edbf62ab~116~ubuntu20.04.1) date 2022-11-29 14:24:58*
%MOMM*%
%LPD*%
G01*
G04 APERTURE LIST*
G04 Aperture macros list*
%AMRoundRect*
0 Rectangle with rounded corners*
0 $1 Rounding radius*
0 $2 $3 $4 $5 $6 $7 $8 $9 X,Y pos of 4 corners*
0 Add a 4 corners polygon primitive as box body*
4,1,4,$2,$3,$4,$5,$6,$7,$8,$9,$2,$3,0*
0 Add four circle primitives for the rounded corners*
1,1,$1+$1,$2,$3*
1,1,$1+$1,$4,$5*
1,1,$1+$1,$6,$7*
1,1,$1+$1,$8,$9*
0 Add four rect primitives between the rounded corners*
20,1,$1+$1,$2,$3,$4,$5,0*
20,1,$1+$1,$4,$5,$6,$7,0*
20,1,$1+$1,$6,$7,$8,$9,0*
20,1,$1+$1,$8,$9,$2,$3,0*%
G04 Aperture macros list end*
%TA.AperFunction,SMDPad,CuDef*%
%ADD10RoundRect,0.200000X0.275000X-0.200000X0.275000X0.200000X-0.275000X0.200000X-0.275000X-0.200000X0*%
%TD*%
%TA.AperFunction,SMDPad,CuDef*%
%ADD11RoundRect,0.200000X-0.275000X0.200000X-0.275000X-0.200000X0.275000X-0.200000X0.275000X0.200000X0*%
%TD*%
%TA.AperFunction,SMDPad,CuDef*%
%ADD12R,1.500000X2.000000*%
%TD*%
%TA.AperFunction,SMDPad,CuDef*%
%ADD13R,3.800000X2.000000*%
%TD*%
%TA.AperFunction,ComponentPad*%
%ADD14RoundRect,0.250000X0.725000X-0.600000X0.725000X0.600000X-0.725000X0.600000X-0.725000X-0.600000X0*%
%TD*%
%TA.AperFunction,ComponentPad*%
%ADD15O,1.950000X1.700000*%
%TD*%
%TA.AperFunction,ComponentPad*%
%ADD16R,1.700000X1.700000*%
%TD*%
%TA.AperFunction,ComponentPad*%
%ADD17O,1.700000X1.700000*%
%TD*%
%TA.AperFunction,SMDPad,CuDef*%
%ADD18R,0.450000X0.600000*%
%TD*%
%TA.AperFunction,SMDPad,CuDef*%
%ADD19RoundRect,0.250000X0.250000X0.750000X-0.250000X0.750000X-0.250000X-0.750000X0.250000X-0.750000X0*%
%TD*%
%TA.AperFunction,ComponentPad*%
%ADD20RoundRect,0.250000X-0.750000X0.600000X-0.750000X-0.600000X0.750000X-0.600000X0.750000X0.600000X0*%
%TD*%
%TA.AperFunction,ComponentPad*%
%ADD21O,2.000000X1.700000*%
%TD*%
%TA.AperFunction,SMDPad,CuDef*%
%ADD22RoundRect,0.250000X0.450000X-0.262500X0.450000X0.262500X-0.450000X0.262500X-0.450000X-0.262500X0*%
%TD*%
%TA.AperFunction,SMDPad,CuDef*%
%ADD23RoundRect,0.250000X-0.550000X1.500000X-0.550000X-1.500000X0.550000X-1.500000X0.550000X1.500000X0*%
%TD*%
%TA.AperFunction,SMDPad,CuDef*%
%ADD24RoundRect,0.250000X0.925000X-0.412500X0.925000X0.412500X-0.925000X0.412500X-0.925000X-0.412500X0*%
%TD*%
%TA.AperFunction,SMDPad,CuDef*%
%ADD25R,0.550000X1.600000*%
%TD*%
%TA.AperFunction,SMDPad,CuDef*%
%ADD26R,1.600000X0.550000*%
%TD*%
%TA.AperFunction,SMDPad,CuDef*%
%ADD27RoundRect,0.250000X-0.250000X-0.750000X0.250000X-0.750000X0.250000X0.750000X-0.250000X0.750000X0*%
%TD*%
%TA.AperFunction,SMDPad,CuDef*%
%ADD28RoundRect,0.200000X-0.200000X-0.275000X0.200000X-0.275000X0.200000X0.275000X-0.200000X0.275000X0*%
%TD*%
%TA.AperFunction,SMDPad,CuDef*%
%ADD29RoundRect,0.100000X-0.637500X-0.100000X0.637500X-0.100000X0.637500X0.100000X-0.637500X0.100000X0*%
%TD*%
%TA.AperFunction,SMDPad,CuDef*%
%ADD30RoundRect,0.250000X0.625000X-0.312500X0.625000X0.312500X-0.625000X0.312500X-0.625000X-0.312500X0*%
%TD*%
%TA.AperFunction,SMDPad,CuDef*%
%ADD31R,0.400000X3.200000*%
%TD*%
%TA.AperFunction,SMDPad,CuDef*%
%ADD32R,2.300000X2.500000*%
%TD*%
%TA.AperFunction,ComponentPad*%
%ADD33R,2.000000X4.600000*%
%TD*%
%TA.AperFunction,ComponentPad*%
%ADD34O,2.000000X4.200000*%
%TD*%
%TA.AperFunction,ComponentPad*%
%ADD35O,4.200000X2.000000*%
%TD*%
%TA.AperFunction,SMDPad,CuDef*%
%ADD36RoundRect,0.200000X0.200000X0.275000X-0.200000X0.275000X-0.200000X-0.275000X0.200000X-0.275000X0*%
%TD*%
%TA.AperFunction,SMDPad,CuDef*%
%ADD37RoundRect,0.218750X-0.218750X-0.256250X0.218750X-0.256250X0.218750X0.256250X-0.218750X0.256250X0*%
%TD*%
%TA.AperFunction,ComponentPad*%
%ADD38RoundRect,0.250000X-0.725000X0.600000X-0.725000X-0.600000X0.725000X-0.600000X0.725000X0.600000X0*%
%TD*%
%TA.AperFunction,ViaPad*%
%ADD39C,1.000000*%
%TD*%
%TA.AperFunction,Conductor*%
%ADD40C,1.250000*%
%TD*%
%TA.AperFunction,Conductor*%
%ADD41C,0.200000*%
%TD*%
%TA.AperFunction,Conductor*%
%ADD42C,1.000000*%
%TD*%
%TA.AperFunction,Conductor*%
%ADD43C,0.500000*%
%TD*%
%TA.AperFunction,Conductor*%
%ADD44C,2.000000*%
%TD*%
%TA.AperFunction,Conductor*%
%ADD45C,0.750000*%
%TD*%
%TA.AperFunction,Conductor*%
%ADD46C,0.700000*%
%TD*%
G04 APERTURE END LIST*
D10*
%TO.P,R1,1*%
%TO.N,VCC*%
X72400000Y-80625000D03*
%TO.P,R1,2*%
%TO.N,~{RESET}*%
X72400000Y-78975000D03*
%TD*%
D11*
%TO.P,C7,1*%
%TO.N,~{RESET}*%
X70200000Y-78975000D03*
%TO.P,C7,2*%
%TO.N,GND*%
X70200000Y-80625000D03*
%TD*%
D12*
%TO.P,U1,1,GND*%
%TO.N,GND*%
X91100000Y-54050000D03*
%TO.P,U1,2,VO*%
%TO.N,VCC*%
X88800000Y-54050000D03*
D13*
X88800000Y-60350000D03*
D12*
%TO.P,U1,3,VI*%
%TO.N,VDD*%
X86500000Y-54050000D03*
%TD*%
D14*
%TO.P,J6,1,Pin_1*%
%TO.N,unconnected-(J6-Pad1)*%
X96700000Y-80350000D03*
D15*
%TO.P,J6,2,Pin_2*%
%TO.N,RXD*%
X96700000Y-77850000D03*
%TO.P,J6,3,Pin_3*%
%TO.N,TXD*%
X96700000Y-75350000D03*
%TO.P,J6,4,Pin_4*%
%TO.N,GND*%
X96700000Y-72850000D03*
%TD*%
D16*
%TO.P,J7,1,Pin_1*%
%TO.N,/MISO*%
X71725000Y-76090000D03*
D17*
%TO.P,J7,2,Pin_2*%
%TO.N,VCC*%
X71725000Y-73550000D03*
%TO.P,J7,3,Pin_3*%
%TO.N,/SCK*%
X69185000Y-76090000D03*
%TO.P,J7,4,Pin_4*%
%TO.N,/MOSI*%
X69185000Y-73550000D03*
%TO.P,J7,5,Pin_5*%
%TO.N,~{RESET}*%
X66645000Y-76090000D03*
%TO.P,J7,6,Pin_6*%
%TO.N,GND*%
X66645000Y-73550000D03*
%TD*%
D18*
%TO.P,D4,1,K*%
%TO.N,VDD*%
X89400000Y-89350000D03*
%TO.P,D4,2,A*%
%TO.N,/COILA2*%
X89400000Y-91450000D03*
%TD*%
D19*
%TO.P,J12,1,Pin_1*%
%TO.N,Net-(J12-Pad1)*%
X77600000Y-82800000D03*
%TD*%
D20*
%TO.P,J2,1,Pin_1*%
%TO.N,VDD*%
X54200000Y-66300000D03*
D21*
%TO.P,J2,2,Pin_2*%
%TO.N,GND*%
X54200000Y-68800000D03*
%TD*%
D10*
%TO.P,R6,1*%
%TO.N,/STBY*%
X87200000Y-81050000D03*
%TO.P,R6,2*%
%TO.N,GND*%
X87200000Y-79400000D03*
%TD*%
D22*
%TO.P,C2,1*%
%TO.N,VCC*%
X94400000Y-57800000D03*
%TO.P,C2,2*%
%TO.N,GND*%
X94400000Y-55975000D03*
%TD*%
D23*
%TO.P,C1,1*%
%TO.N,VDD*%
X79800000Y-52800000D03*
%TO.P,C1,2*%
%TO.N,GND*%
X79800000Y-58400000D03*
%TD*%
D24*
%TO.P,C3,1*%
%TO.N,VCC*%
X97800000Y-59000000D03*
%TO.P,C3,2*%
%TO.N,GND*%
X97800000Y-55925000D03*
%TD*%
D25*
%TO.P,U2,1,PD3*%
%TO.N,Net-(J16-Pad1)*%
X83200000Y-68550000D03*
%TO.P,U2,2,PD4*%
%TO.N,Net-(J17-Pad1)*%
X82400000Y-68550000D03*
%TO.P,U2,3,GND*%
%TO.N,GND*%
X81600000Y-68550000D03*
%TO.P,U2,4,VCC*%
%TO.N,VCC*%
X80800000Y-68550000D03*
%TO.P,U2,5,GND*%
%TO.N,GND*%
X80000000Y-68550000D03*
%TO.P,U2,6,VCC*%
%TO.N,VCC*%
X79200000Y-68550000D03*
%TO.P,U2,7,PB6/XTAL1*%
%TO.N,/XTAL1*%
X78400000Y-68550000D03*
%TO.P,U2,8,PB7/XTAL2*%
%TO.N,/XTAL2*%
X77600000Y-68550000D03*
D26*
%TO.P,U2,9,PD5*%
%TO.N,HOME_SWITCH*%
X76150000Y-70000000D03*
%TO.P,U2,10,PD6*%
%TO.N,BUTTON*%
X76150000Y-70800000D03*
%TO.P,U2,11,PD7*%
%TO.N,Net-(J18-Pad1)*%
X76150000Y-71600000D03*
%TO.P,U2,12,PB0*%
%TO.N,Net-(J9-Pad1)*%
X76150000Y-72400000D03*
%TO.P,U2,13,PB1*%
%TO.N,Net-(J10-Pad1)*%
X76150000Y-73200000D03*
%TO.P,U2,14,PB2*%
%TO.N,Net-(J11-Pad1)*%
X76150000Y-74000000D03*
%TO.P,U2,15,PB3*%
%TO.N,/MOSI*%
X76150000Y-74800000D03*
%TO.P,U2,16,PB4*%
%TO.N,/MISO*%
X76150000Y-75600000D03*
D25*
%TO.P,U2,17,PB5*%
%TO.N,/SCK*%
X77600000Y-77050000D03*
%TO.P,U2,18,AVCC*%
%TO.N,VCC*%
X78400000Y-77050000D03*
%TO.P,U2,19,ADC6*%
%TO.N,Net-(J13-Pad1)*%
X79200000Y-77050000D03*
%TO.P,U2,20,AREF*%
%TO.N,Net-(J12-Pad1)*%
X80000000Y-77050000D03*
%TO.P,U2,21,AGND*%
%TO.N,GND*%
X80800000Y-77050000D03*
%TO.P,U2,22,ADC7*%
%TO.N,Net-(J14-Pad1)*%
X81600000Y-77050000D03*
%TO.P,U2,23,PC0*%
%TO.N,/EN_B*%
X82400000Y-77050000D03*
%TO.P,U2,24,PC1*%
%TO.N,/PHA_B*%
X83200000Y-77050000D03*
D26*
%TO.P,U2,25,PC2*%
%TO.N,/STBY*%
X84650000Y-75600000D03*
%TO.P,U2,26,PC3*%
%TO.N,/EN_A*%
X84650000Y-74800000D03*
%TO.P,U2,27,PC4*%
%TO.N,/PHA_A*%
X84650000Y-74000000D03*
%TO.P,U2,28,PC5*%
%TO.N,Net-(R9-Pad1)*%
X84650000Y-73200000D03*
%TO.P,U2,29,PC6/~{RESET}*%
%TO.N,~{RESET}*%
X84650000Y-72400000D03*
%TO.P,U2,30,PD0*%
%TO.N,/RXD_PIN*%
X84650000Y-71600000D03*
%TO.P,U2,31,PD1*%
%TO.N,/TXD_PIN*%
X84650000Y-70800000D03*
%TO.P,U2,32,PD2*%
%TO.N,Net-(J15-Pad1)*%
X84650000Y-70000000D03*
%TD*%
D27*
%TO.P,J14,1,Pin_1*%
%TO.N,Net-(J14-Pad1)*%
X79800000Y-82800000D03*
%TD*%
D28*
%TO.P,R9,1*%
%TO.N,Net-(R9-Pad1)*%
X89550000Y-73200000D03*
%TO.P,R9,2*%
%TO.N,Net-(D10-Pad2)*%
X91200000Y-73200000D03*
%TD*%
D20*
%TO.P,J4,1,Pin_1*%
%TO.N,HOME_SWITCH*%
X54300000Y-77000000D03*
D21*
%TO.P,J4,2,Pin_2*%
%TO.N,GND*%
X54300000Y-79500000D03*
%TD*%
D19*
%TO.P,J10,1,Pin_1*%
%TO.N,Net-(J10-Pad1)*%
X69600000Y-69600000D03*
%TD*%
D27*
%TO.P,J13,1,Pin_1*%
%TO.N,Net-(J13-Pad1)*%
X75400000Y-82800000D03*
%TD*%
D18*
%TO.P,D7,1,K*%
%TO.N,/COILB1*%
X93100000Y-92950000D03*
%TO.P,D7,2,A*%
%TO.N,GND*%
X93100000Y-95050000D03*
%TD*%
%TO.P,D8,1,K*%
%TO.N,VDD*%
X89400000Y-96550000D03*
%TO.P,D8,2,A*%
%TO.N,/COILB2*%
X89400000Y-98650000D03*
%TD*%
D14*
%TO.P,J8,1,Pin_1*%
%TO.N,/COILB2*%
X96700000Y-96550000D03*
D15*
%TO.P,J8,2,Pin_2*%
%TO.N,/COILB1*%
X96700000Y-94050000D03*
%TO.P,J8,3,Pin_3*%
%TO.N,/COILA2*%
X96700000Y-91550000D03*
%TO.P,J8,4,Pin_4*%
%TO.N,/COILA1*%
X96700000Y-89050000D03*
%TD*%
D29*
%TO.P,U3,1,NC*%
%TO.N,unconnected-(U3-Pad1)*%
X77337500Y-88525000D03*
%TO.P,U3,2,NC*%
%TO.N,unconnected-(U3-Pad2)*%
X77337500Y-89175000D03*
%TO.P,U3,3,PHA_A*%
%TO.N,/PHA_A*%
X77337500Y-89825000D03*
%TO.P,U3,4,EN_A*%
%TO.N,/EN_A*%
X77337500Y-90475000D03*
%TO.P,U3,5,VCC*%
%TO.N,VCC*%
X77337500Y-91125000D03*
%TO.P,U3,6,STBY*%
%TO.N,/STBY*%
X77337500Y-91775000D03*
%TO.P,U3,7,PHA_B*%
%TO.N,/PHA_B*%
X77337500Y-92425000D03*
%TO.P,U3,8,EN_B*%
%TO.N,/EN_B*%
X77337500Y-93075000D03*
%TO.P,U3,9,VM*%
%TO.N,VDD*%
X83062500Y-93075000D03*
%TO.P,U3,10,BO2*%
%TO.N,/COILB2*%
X83062500Y-92425000D03*
%TO.P,U3,11,GND*%
%TO.N,GND*%
X83062500Y-91775000D03*
%TO.P,U3,12,BO1*%
%TO.N,/COILB1*%
X83062500Y-91125000D03*
%TO.P,U3,13,AO2*%
%TO.N,/COILA2*%
X83062500Y-90475000D03*
%TO.P,U3,14,GND*%
%TO.N,GND*%
X83062500Y-89825000D03*
%TO.P,U3,15,AO1*%
%TO.N,/COILA1*%
X83062500Y-89175000D03*
%TO.P,U3,16,GND*%
%TO.N,GND*%
X83062500Y-88525000D03*
%TD*%
D19*
%TO.P,J11,1,Pin_1*%
%TO.N,Net-(J11-Pad1)*%
X67800000Y-69600000D03*
%TD*%
D18*
%TO.P,D2,1,K*%
%TO.N,VDD*%
X89400000Y-87850000D03*
%TO.P,D2,2,A*%
%TO.N,/COILA1*%
X89400000Y-85750000D03*
%TD*%
D30*
%TO.P,F1,1*%
%TO.N,Net-(F1-Pad1)*%
X68400000Y-55200000D03*
%TO.P,F1,2*%
%TO.N,VDD*%
X68400000Y-52275000D03*
%TD*%
D10*
%TO.P,R5,1*%
%TO.N,/PHA_B*%
X83600000Y-83225000D03*
%TO.P,R5,2*%
%TO.N,GND*%
X83600000Y-81575000D03*
%TD*%
D31*
%TO.P,Y1,1,1*%
%TO.N,/XTAL1*%
X76800000Y-65000000D03*
%TO.P,Y1,2,2*%
%TO.N,GND*%
X75600000Y-65000000D03*
%TO.P,Y1,3,3*%
%TO.N,/XTAL2*%
X74400000Y-65000000D03*
%TD*%
D32*
%TO.P,D1,1,K*%
%TO.N,VDD*%
X72800000Y-52850000D03*
%TO.P,D1,2,A*%
%TO.N,GND*%
X72800000Y-57150000D03*
%TD*%
D20*
%TO.P,J3,1,Pin_1*%
%TO.N,VDD*%
X61100000Y-66250000D03*
D21*
%TO.P,J3,2,Pin_2*%
%TO.N,GND*%
X61100000Y-68750000D03*
%TD*%
D10*
%TO.P,R7,1*%
%TO.N,/EN_A*%
X89200000Y-81050000D03*
%TO.P,R7,2*%
%TO.N,GND*%
X89200000Y-79400000D03*
%TD*%
%TO.P,R8,1*%
%TO.N,/PHA_A*%
X91200000Y-81050000D03*
%TO.P,R8,2*%
%TO.N,GND*%
X91200000Y-79400000D03*
%TD*%
D33*
%TO.P,J1,1*%
%TO.N,Net-(F1-Pad1)*%
X64150000Y-55200000D03*
D34*
%TO.P,J1,2*%
%TO.N,GND*%
X57850000Y-55200000D03*
D35*
%TO.P,J1,3*%
X61250000Y-60000000D03*
%TD*%
D36*
%TO.P,C5,1*%
%TO.N,GND*%
X79450000Y-94800000D03*
%TO.P,C5,2*%
%TO.N,VCC*%
X77800000Y-94800000D03*
%TD*%
D19*
%TO.P,J18,1,Pin_1*%
%TO.N,Net-(J18-Pad1)*%
X73200000Y-69600000D03*
%TD*%
D28*
%TO.P,C4,1*%
%TO.N,VCC*%
X79600000Y-66400000D03*
%TO.P,C4,2*%
%TO.N,GND*%
X81250000Y-66400000D03*
%TD*%
%TO.P,R2,1*%
%TO.N,/RXD_PIN*%
X89550000Y-71200000D03*
%TO.P,R2,2*%
%TO.N,RXD*%
X91200000Y-71200000D03*
%TD*%
D36*
%TO.P,C8,1*%
%TO.N,VDD*%
X83050000Y-94800000D03*
%TO.P,C8,2*%
%TO.N,GND*%
X81400000Y-94800000D03*
%TD*%
D18*
%TO.P,D3,1,K*%
%TO.N,/COILA1*%
X93100000Y-85750000D03*
%TO.P,D3,2,A*%
%TO.N,GND*%
X93100000Y-87850000D03*
%TD*%
D28*
%TO.P,R3,1*%
%TO.N,/TXD_PIN*%
X89550000Y-69200000D03*
%TO.P,R3,2*%
%TO.N,TXD*%
X91200000Y-69200000D03*
%TD*%
D27*
%TO.P,J16,1,Pin_1*%
%TO.N,Net-(J16-Pad1)*%
X86200000Y-65600000D03*
%TD*%
D18*
%TO.P,D5,1,K*%
%TO.N,/COILA2*%
X93100000Y-91450000D03*
%TO.P,D5,2,A*%
%TO.N,GND*%
X93100000Y-89350000D03*
%TD*%
D37*
%TO.P,D10,1,K*%
%TO.N,GND*%
X89625000Y-75200000D03*
%TO.P,D10,2,A*%
%TO.N,Net-(D10-Pad2)*%
X91200000Y-75200000D03*
%TD*%
D27*
%TO.P,J17,1,Pin_1*%
%TO.N,Net-(J17-Pad1)*%
X84200000Y-65600000D03*
%TD*%
D10*
%TO.P,R4,1*%
%TO.N,/EN_B*%
X81600000Y-83250000D03*
%TO.P,R4,2*%
%TO.N,GND*%
X81600000Y-81600000D03*
%TD*%
D18*
%TO.P,D6,1,K*%
%TO.N,VDD*%
X89400000Y-95050000D03*
%TO.P,D6,2,A*%
%TO.N,/COILB1*%
X89400000Y-92950000D03*
%TD*%
D10*
%TO.P,C6,1*%
%TO.N,VCC*%
X75600000Y-80425000D03*
%TO.P,C6,2*%
%TO.N,GND*%
X75600000Y-78775000D03*
%TD*%
D19*
%TO.P,J9,1,Pin_1*%
%TO.N,Net-(J9-Pad1)*%
X71400000Y-69600000D03*
%TD*%
D18*
%TO.P,D9,1,K*%
%TO.N,/COILB2*%
X93100000Y-98650000D03*
%TO.P,D9,2,A*%
%TO.N,GND*%
X93100000Y-96550000D03*
%TD*%
D27*
%TO.P,J15,1,Pin_1*%
%TO.N,Net-(J15-Pad1)*%
X88200000Y-65600000D03*
%TD*%
D38*
%TO.P,J5,1,Pin_1*%
%TO.N,VCC*%
X54300000Y-87400000D03*
D15*
%TO.P,J5,2,Pin_2*%
%TO.N,GND*%
X54300000Y-89900000D03*
%TO.P,J5,3,Pin_3*%
%TO.N,BUTTON*%
X54300000Y-92400000D03*
%TO.P,J5,4,Pin_4*%
%TO.N,GND*%
X54300000Y-94900000D03*
%TD*%
D39*
%TO.N,VDD*%
X87934787Y-95865213D03*
X86200000Y-97200000D03*
X86600000Y-93874500D03*
X87400000Y-90200000D03*
%TO.N,GND*%
X94400000Y-54000000D03*
X72000000Y-59400000D03*
X79400000Y-96200000D03*
X70600000Y-56400000D03*
X75600000Y-77599500D03*
X79800000Y-93400000D03*
X97800000Y-51600000D03*
X80800000Y-75200000D03*
X97800000Y-54200000D03*
X81600000Y-57200000D03*
X91000000Y-51800000D03*
X91400000Y-88600000D03*
X78000000Y-59600000D03*
X80800000Y-70200000D03*
X81000000Y-96200000D03*
X82600000Y-80200000D03*
X73400000Y-59400000D03*
X87800000Y-75200000D03*
X80800000Y-78800000D03*
X91200000Y-78000000D03*
X89200000Y-78000000D03*
X91600000Y-97000000D03*
X70600000Y-57800000D03*
X76000000Y-67400000D03*
X78000000Y-57200000D03*
X81600000Y-59600000D03*
X87200000Y-78000000D03*
X81000000Y-93400000D03*
X68800000Y-80600000D03*
X82600000Y-66400000D03*
%TO.N,HOME_SWITCH*%
X70028602Y-63600000D03*
X71671398Y-64871398D03*
%TO.N,BUTTON*%
X68763948Y-65092549D03*
X70400000Y-66200000D03*
%TO.N,~{RESET}*%
X78600000Y-75400000D03*
X74400000Y-79600000D03*
%TD*%
D40*
%TO.N,VDD*%
X78800000Y-52800000D02*
X79800000Y-52800000D01*
X71000000Y-62200000D02*
X72000000Y-61200000D01*
D41*
X86200000Y-97200000D02*
X86150000Y-97150000D01*
X83050000Y-93087500D02*
X83062500Y-93075000D01*
D42*
X63400000Y-63600000D02*
X53400000Y-63600000D01*
X51900000Y-98500000D02*
X81300000Y-98500000D01*
D41*
X86600000Y-93874500D02*
X86600000Y-94530426D01*
D42*
X63800000Y-65000000D02*
X63800000Y-64000000D01*
X83050000Y-93325000D02*
X83062500Y-93325000D01*
D40*
X72000000Y-61200000D02*
X73600000Y-61200000D01*
D41*
X87775500Y-95050000D02*
X89400000Y-95050000D01*
X86600000Y-93874500D02*
X87775500Y-95050000D01*
D42*
X51500000Y-65500000D02*
X53400000Y-65500000D01*
X53400000Y-63600000D02*
X51500000Y-65500000D01*
D40*
X62550000Y-66250000D02*
X61100000Y-66250000D01*
X65600000Y-62200000D02*
X71000000Y-62200000D01*
X63800000Y-64000000D02*
X65600000Y-62200000D01*
D41*
X88250000Y-89350000D02*
X89400000Y-89350000D01*
D42*
X83050000Y-96750000D02*
X83050000Y-94800000D01*
X51500000Y-98100000D02*
X51900000Y-98500000D01*
D41*
X86150000Y-97150000D02*
X83050000Y-97150000D01*
D40*
X75600000Y-56000000D02*
X78800000Y-52800000D01*
D42*
X81300000Y-98500000D02*
X83050000Y-96750000D01*
D41*
X89400000Y-87850000D02*
X89400000Y-89350000D01*
D40*
X73600000Y-61200000D02*
X75600000Y-59200000D01*
D42*
X51500000Y-65500000D02*
X51500000Y-98100000D01*
X53400000Y-65500000D02*
X54200000Y-66300000D01*
D41*
X87934787Y-95865213D02*
X88619574Y-96550000D01*
X86600000Y-94530426D02*
X87934787Y-95865213D01*
D40*
X75600000Y-59200000D02*
X75600000Y-56000000D01*
X61100000Y-66250000D02*
X54250000Y-66250000D01*
D42*
X83050000Y-94800000D02*
X83050000Y-93325000D01*
X63800000Y-64000000D02*
X63400000Y-63600000D01*
D40*
X63800000Y-65000000D02*
X62550000Y-66250000D01*
D41*
X87400000Y-90200000D02*
X88250000Y-89350000D01*
D40*
X54250000Y-66250000D02*
X54200000Y-66300000D01*
D41*
X89400000Y-95050000D02*
X89400000Y-96550000D01*
X88619574Y-96550000D02*
X89400000Y-96550000D01*
%TO.N,GND*%
X93100000Y-96100000D02*
X92500000Y-96100000D01*
X81875000Y-88525000D02*
X81600000Y-88800000D01*
X80800000Y-75200000D02*
X80800000Y-77050000D01*
X93100000Y-96750000D02*
X93100000Y-96100000D01*
X89200000Y-79400000D02*
X89200000Y-78000000D01*
X80600000Y-70200000D02*
X80800000Y-70200000D01*
D42*
X61800000Y-60000000D02*
X69800000Y-60000000D01*
D41*
X83062500Y-91775000D02*
X81625000Y-91775000D01*
X68825000Y-80625000D02*
X68800000Y-80600000D01*
X81600000Y-88800000D02*
X81600000Y-89800000D01*
X93100000Y-87850000D02*
X92150000Y-87850000D01*
D43*
X72000000Y-59400000D02*
X71200000Y-59400000D01*
D41*
X83062500Y-89825000D02*
X81625000Y-89825000D01*
X79450000Y-96150000D02*
X79450000Y-94800000D01*
D43*
X73400000Y-59400000D02*
X73400000Y-57750000D01*
D41*
X80800000Y-78800000D02*
X80800000Y-77800000D01*
X75600000Y-67000000D02*
X75600000Y-64600000D01*
X81625000Y-91775000D02*
X81600000Y-91800000D01*
D43*
X78000000Y-59600000D02*
X78000000Y-57200000D01*
D41*
X79450000Y-93750000D02*
X79450000Y-94800000D01*
D43*
X72000000Y-57950000D02*
X72800000Y-57150000D01*
D41*
X92500000Y-96100000D02*
X91600000Y-97000000D01*
D42*
X72200000Y-57400000D02*
X72200000Y-59400000D01*
X61250000Y-57050000D02*
X61250000Y-59750000D01*
D41*
X83062500Y-88525000D02*
X81875000Y-88525000D01*
X92150000Y-87850000D02*
X91400000Y-88600000D01*
D42*
X61400000Y-59600000D02*
X61800000Y-60000000D01*
D41*
X81600000Y-94225000D02*
X81200000Y-94625000D01*
X87200000Y-79400000D02*
X87200000Y-78000000D01*
X81400000Y-93800000D02*
X81400000Y-94800000D01*
D43*
X70600000Y-57800000D02*
X70600000Y-56400000D01*
D41*
X81000000Y-93400000D02*
X81400000Y-93800000D01*
D42*
X69800000Y-60000000D02*
X70400000Y-59400000D01*
X57850000Y-54950000D02*
X59150000Y-54950000D01*
D41*
X80000000Y-68550000D02*
X80000000Y-69600000D01*
X81600000Y-66750000D02*
X81600000Y-68550000D01*
X80800000Y-70200000D02*
X81200000Y-70200000D01*
D43*
X81600000Y-59600000D02*
X81000000Y-59600000D01*
D41*
X83600000Y-81575000D02*
X83600000Y-81200000D01*
X70200000Y-80625000D02*
X68825000Y-80625000D01*
X80000000Y-69600000D02*
X80600000Y-70200000D01*
X81250000Y-66400000D02*
X81600000Y-66750000D01*
D43*
X78000000Y-59600000D02*
X78600000Y-59600000D01*
D41*
X93100000Y-89350000D02*
X93100000Y-87850000D01*
X89600000Y-75200000D02*
X87800000Y-75200000D01*
D43*
X71200000Y-59400000D02*
X70600000Y-58800000D01*
X73400000Y-59400000D02*
X72000000Y-59400000D01*
D42*
X70400000Y-59400000D02*
X71200000Y-59400000D01*
D41*
X81600000Y-89800000D02*
X81600000Y-91800000D01*
D42*
X72200000Y-59400000D02*
X71200000Y-59400000D01*
D41*
X93100000Y-96100000D02*
X93100000Y-95250000D01*
X79800000Y-93400000D02*
X79450000Y-93750000D01*
X81600000Y-81200000D02*
X82600000Y-80200000D01*
X81250000Y-66400000D02*
X82600000Y-66400000D01*
X81625000Y-89825000D02*
X81600000Y-89800000D01*
X81600000Y-91800000D02*
X81600000Y-94225000D01*
X81400000Y-94800000D02*
X81400000Y-95800000D01*
D43*
X81600000Y-57200000D02*
X81600000Y-59600000D01*
X70600000Y-58800000D02*
X70600000Y-57800000D01*
D41*
X81600000Y-81600000D02*
X81600000Y-81200000D01*
D43*
X70600000Y-56400000D02*
X72050000Y-56400000D01*
X70600000Y-57800000D02*
X72150000Y-57800000D01*
X72200000Y-59200000D02*
X72200000Y-57400000D01*
X61400000Y-59600000D02*
X61250000Y-59750000D01*
X78600000Y-59600000D02*
X79800000Y-58400000D01*
X72150000Y-57800000D02*
X72800000Y-57150000D01*
D41*
X79400000Y-96200000D02*
X79450000Y-96150000D01*
X91200000Y-79400000D02*
X91200000Y-78000000D01*
D42*
X59150000Y-54950000D02*
X61250000Y-57050000D01*
D43*
X78000000Y-57200000D02*
X78600000Y-57200000D01*
X81000000Y-57200000D02*
X79800000Y-58400000D01*
D41*
X81400000Y-95800000D02*
X81000000Y-96200000D01*
D43*
X72000000Y-59400000D02*
X72000000Y-57950000D01*
X72000000Y-59400000D02*
X72200000Y-59200000D01*
X73400000Y-57750000D02*
X72800000Y-57150000D01*
D41*
X75600000Y-77599500D02*
X75600000Y-78775000D01*
D43*
X81600000Y-57200000D02*
X81000000Y-57200000D01*
X78600000Y-57200000D02*
X79800000Y-58400000D01*
D41*
X81600000Y-69800000D02*
X81600000Y-68550000D01*
X79450000Y-94800000D02*
X81400000Y-94800000D01*
D43*
X81000000Y-59600000D02*
X79800000Y-58400000D01*
D41*
X83600000Y-81200000D02*
X82600000Y-80200000D01*
X76000000Y-67400000D02*
X75600000Y-67000000D01*
D43*
X72050000Y-56400000D02*
X72800000Y-57150000D01*
D41*
X81200000Y-70200000D02*
X81600000Y-69800000D01*
D43*
%TO.N,VCC*%
X71437500Y-73550000D02*
X69687500Y-71800000D01*
X78463908Y-91125000D02*
X78800000Y-91461092D01*
X69800000Y-85600000D02*
X69800000Y-91000000D01*
X69687500Y-71800000D02*
X64600000Y-71800000D01*
X63700000Y-79800000D02*
X63600000Y-79800000D01*
X69800000Y-91000000D02*
X73600000Y-94800000D01*
D41*
X80800000Y-68550000D02*
X80800000Y-67675000D01*
D43*
X63400000Y-79800000D02*
X63600000Y-79800000D01*
X71600000Y-83400000D02*
X71600000Y-81425000D01*
X73600000Y-94800000D02*
X77800000Y-94800000D01*
X71600000Y-83400000D02*
X71600000Y-83800000D01*
X79600000Y-66400000D02*
X79600000Y-62800000D01*
X71600000Y-83400000D02*
X71200000Y-83000000D01*
X72375000Y-80650000D02*
X76950000Y-80650000D01*
X66900000Y-83000000D02*
X63700000Y-79800000D01*
X64600000Y-70600000D02*
X64600000Y-71800000D01*
D41*
X79600000Y-66475000D02*
X79600000Y-66400000D01*
D43*
X78400000Y-91125000D02*
X78463908Y-91125000D01*
X78800000Y-93800000D02*
X77800000Y-94800000D01*
X71200000Y-83000000D02*
X66900000Y-83000000D01*
X64600000Y-71800000D02*
X63600000Y-72800000D01*
X63600000Y-72800000D02*
X63600000Y-79800000D01*
D41*
X79600000Y-66400000D02*
X79200000Y-66800000D01*
D43*
X71600000Y-81425000D02*
X72375000Y-80650000D01*
X79600000Y-62800000D02*
X79200000Y-62400000D01*
X54300000Y-87400000D02*
X55800000Y-87400000D01*
X78400000Y-78800000D02*
X78400000Y-77050000D01*
X78800000Y-91461092D02*
X78800000Y-93800000D01*
D41*
X77337500Y-91125000D02*
X78400000Y-91125000D01*
D43*
X71725000Y-73550000D02*
X71437500Y-73550000D01*
X71600000Y-83800000D02*
X69800000Y-85600000D01*
X55800000Y-87400000D02*
X63400000Y-79800000D01*
X79200000Y-62400000D02*
X72800000Y-62400000D01*
X72800000Y-62400000D02*
X64600000Y-70600000D01*
X78400000Y-79200000D02*
X78400000Y-78800000D01*
D44*
X88800000Y-54050000D02*
X88800000Y-60350000D01*
D43*
X76950000Y-80650000D02*
X78400000Y-79200000D01*
D41*
X79200000Y-66800000D02*
X79200000Y-68550000D01*
X80800000Y-67675000D02*
X79600000Y-66475000D01*
D45*
%TO.N,/COILA1*%
X96600000Y-86600000D02*
X95750000Y-85750000D01*
X85800000Y-89000000D02*
X84400000Y-89000000D01*
X96600000Y-88950000D02*
X96600000Y-86600000D01*
X95750000Y-85750000D02*
X93100000Y-85750000D01*
X89050000Y-85750000D02*
X85800000Y-89000000D01*
D41*
X84400000Y-89000000D02*
X84225000Y-89175000D01*
D45*
X89400000Y-85750000D02*
X89050000Y-85750000D01*
D41*
X84225000Y-89175000D02*
X83062500Y-89175000D01*
D45*
X96700000Y-89050000D02*
X96600000Y-88950000D01*
X89400000Y-85750000D02*
X93100000Y-85750000D01*
D41*
%TO.N,/COILA2*%
X83925000Y-90475000D02*
X83062500Y-90475000D01*
D45*
X85200000Y-90200000D02*
X86450000Y-91450000D01*
X96700000Y-91550000D02*
X96600000Y-91450000D01*
D41*
X84200000Y-90200000D02*
X83925000Y-90475000D01*
D45*
X86450000Y-91450000D02*
X89400000Y-91450000D01*
X84800000Y-90200000D02*
X85200000Y-90200000D01*
X89400000Y-91450000D02*
X93100000Y-91450000D01*
D41*
X84800000Y-90200000D02*
X84200000Y-90200000D01*
D45*
X96600000Y-91450000D02*
X93100000Y-91450000D01*
D41*
%TO.N,/COILB1*%
X84525000Y-91125000D02*
X83062500Y-91125000D01*
D45*
X96700000Y-94050000D02*
X94650000Y-94050000D01*
X93400000Y-92800000D02*
X86200000Y-92800000D01*
X94650000Y-94050000D02*
X93400000Y-92800000D01*
X86200000Y-92800000D02*
X84525000Y-91125000D01*
%TO.N,/COILB2*%
X89150000Y-98600000D02*
X89175000Y-98625000D01*
X89150000Y-98600000D02*
X85400000Y-94850000D01*
X85400000Y-93400000D02*
X84425000Y-92425000D01*
D46*
X93100000Y-98650000D02*
X94600000Y-98650000D01*
D45*
X85400000Y-94850000D02*
X85400000Y-93400000D01*
X89200000Y-98600000D02*
X89150000Y-98600000D01*
X89175000Y-98625000D02*
X89400000Y-98625000D01*
D46*
X93100000Y-98650000D02*
X89400000Y-98650000D01*
D41*
X84425000Y-92425000D02*
X83062500Y-92425000D01*
D46*
X94600000Y-98650000D02*
X96700000Y-96550000D01*
D41*
%TO.N,Net-(D10-Pad2)*%
X91200000Y-73200000D02*
X91200000Y-75200000D01*
%TO.N,Net-(F1-Pad1)*%
X68150000Y-54950000D02*
X68400000Y-55200000D01*
%TO.N,HOME_SWITCH*%
X70028602Y-63600000D02*
X69125833Y-63600000D01*
X55725833Y-77000000D02*
X54300000Y-77000000D01*
X71671398Y-65471398D02*
X76150000Y-69950000D01*
X69125833Y-63600000D02*
X55725833Y-77000000D01*
X71671398Y-64871398D02*
X71671398Y-65471398D01*
X76150000Y-69950000D02*
X76150000Y-70000000D01*
%TO.N,BUTTON*%
X75275000Y-70800000D02*
X76150000Y-70800000D01*
X54800000Y-85800000D02*
X53400000Y-85800000D01*
X53400000Y-85800000D02*
X52600000Y-86600000D01*
X68763948Y-65092549D02*
X68763948Y-65093256D01*
X74600000Y-70125000D02*
X75275000Y-70800000D01*
X52600000Y-86600000D02*
X52600000Y-91800000D01*
X74600000Y-69100000D02*
X74600000Y-70125000D01*
X52600000Y-91800000D02*
X53200000Y-92400000D01*
X70400000Y-66200000D02*
X71700000Y-66200000D01*
X59800000Y-74057204D02*
X59800000Y-80800000D01*
X59800000Y-80800000D02*
X54800000Y-85800000D01*
X53200000Y-92400000D02*
X54300000Y-92400000D01*
X68763948Y-65093256D02*
X59800000Y-74057204D01*
X71700000Y-66200000D02*
X74600000Y-69100000D01*
%TO.N,RXD*%
X92600000Y-74800000D02*
X95650000Y-77850000D01*
X91200000Y-71200000D02*
X92600000Y-72600000D01*
X92600000Y-72600000D02*
X92600000Y-74800000D01*
X95650000Y-77850000D02*
X96300000Y-77850000D01*
%TO.N,TXD*%
X92200000Y-71000000D02*
X92200000Y-70000000D01*
X92200000Y-70000000D02*
X91400000Y-69200000D01*
X96300000Y-75100000D02*
X92200000Y-71000000D01*
X96300000Y-75350000D02*
X96300000Y-75100000D01*
%TO.N,/MISO*%
X75660000Y-76090000D02*
X76150000Y-75600000D01*
X71725000Y-76090000D02*
X75660000Y-76090000D01*
%TO.N,/SCK*%
X72875000Y-77240000D02*
X70335000Y-77240000D01*
X77600000Y-77050000D02*
X77350000Y-76800000D01*
X73315000Y-76800000D02*
X72875000Y-77240000D01*
X70335000Y-77240000D02*
X69185000Y-76090000D01*
X77350000Y-76800000D02*
X73315000Y-76800000D01*
%TO.N,/MOSI*%
X76010000Y-74940000D02*
X76150000Y-74800000D01*
X69185000Y-73550000D02*
X70575000Y-74940000D01*
X70575000Y-74940000D02*
X76010000Y-74940000D01*
%TO.N,~{RESET}*%
X78600000Y-75400000D02*
X78600000Y-74800000D01*
X69555000Y-79000000D02*
X66645000Y-76090000D01*
X81000000Y-72400000D02*
X84650000Y-72400000D01*
X78600000Y-74800000D02*
X81000000Y-72400000D01*
X74400000Y-79600000D02*
X73800000Y-79000000D01*
X73800000Y-79000000D02*
X69555000Y-79000000D01*
%TO.N,/RXD_PIN*%
X87400000Y-71600000D02*
X84650000Y-71600000D01*
X87800000Y-71200000D02*
X87400000Y-71600000D01*
X89550000Y-71200000D02*
X87825000Y-71200000D01*
%TO.N,/TXD_PIN*%
X87000000Y-70800000D02*
X84650000Y-70800000D01*
X88600000Y-69200000D02*
X87000000Y-70800000D01*
X89550000Y-69200000D02*
X88625000Y-69200000D01*
%TO.N,/EN_B*%
X72400000Y-87000000D02*
X72400000Y-90600000D01*
X81200000Y-84400000D02*
X75000000Y-84400000D01*
X75000000Y-93200000D02*
X77212500Y-93200000D01*
X82400000Y-77050000D02*
X82400000Y-79200000D01*
X80800000Y-80800000D02*
X80800000Y-82800000D01*
X80800000Y-82800000D02*
X81250000Y-83250000D01*
X81600000Y-84000000D02*
X81200000Y-84400000D01*
X77212500Y-93200000D02*
X77337500Y-93075000D01*
X72400000Y-90600000D02*
X75000000Y-93200000D01*
X75000000Y-84400000D02*
X72400000Y-87000000D01*
X81600000Y-83250000D02*
X81600000Y-84000000D01*
X82400000Y-79200000D02*
X80800000Y-80800000D01*
X81250000Y-83250000D02*
X81600000Y-83250000D01*
%TO.N,/PHA_B*%
X83600000Y-83765685D02*
X83600000Y-83225000D01*
X77337500Y-92425000D02*
X75425000Y-92425000D01*
X82165685Y-85200000D02*
X83600000Y-83765685D01*
X73200000Y-87400000D02*
X75400000Y-85200000D01*
X84600000Y-82600000D02*
X84600000Y-80400000D01*
X83975000Y-83225000D02*
X84600000Y-82600000D01*
X83200000Y-79000000D02*
X83200000Y-77050000D01*
X83600000Y-83225000D02*
X83975000Y-83225000D01*
X73200000Y-90200000D02*
X73200000Y-87400000D01*
X75400000Y-85200000D02*
X82165685Y-85200000D01*
X84600000Y-80400000D02*
X83200000Y-79000000D01*
X75425000Y-92425000D02*
X73200000Y-90200000D01*
%TO.N,/STBY*%
X83500000Y-86000000D02*
X75800000Y-86000000D01*
X84650000Y-79050000D02*
X84650000Y-75600000D01*
X75800000Y-86000000D02*
X74000000Y-87800000D01*
X87200000Y-82300000D02*
X83500000Y-86000000D01*
X75975000Y-91775000D02*
X77337500Y-91775000D01*
X74000000Y-89800000D02*
X75975000Y-91775000D01*
X74000000Y-87800000D02*
X74000000Y-89800000D01*
X87200000Y-81050000D02*
X87200000Y-82300000D01*
X86650000Y-81050000D02*
X84650000Y-79050000D01*
X87200000Y-81050000D02*
X86650000Y-81050000D01*
%TO.N,/EN_A*%
X83800000Y-86800000D02*
X89200000Y-81400000D01*
X88200000Y-80050000D02*
X88200000Y-78650000D01*
X85525000Y-74800000D02*
X84650000Y-74800000D01*
X86800000Y-76800000D02*
X86000000Y-76000000D01*
X74800000Y-88200000D02*
X76200000Y-86800000D01*
X76200000Y-86800000D02*
X83800000Y-86800000D01*
X88200000Y-77600000D02*
X87400000Y-76800000D01*
X86000000Y-75275000D02*
X85525000Y-74800000D01*
X89200000Y-81050000D02*
X88200000Y-80050000D01*
X86000000Y-76000000D02*
X86000000Y-75275000D01*
X87400000Y-76800000D02*
X86800000Y-76800000D01*
X89200000Y-81400000D02*
X89200000Y-81050000D01*
X88200000Y-78600000D02*
X88200000Y-77600000D01*
X77337500Y-90475000D02*
X76075000Y-90475000D01*
X74800000Y-89200000D02*
X74800000Y-88200000D01*
X76075000Y-90475000D02*
X74800000Y-89200000D01*
%TO.N,/PHA_A*%
X89200000Y-76200000D02*
X86800000Y-76200000D01*
X90200000Y-77200000D02*
X89200000Y-76200000D01*
X75600000Y-88400000D02*
X75600000Y-89000000D01*
X84200000Y-87600000D02*
X76400000Y-87600000D01*
X76400000Y-87600000D02*
X75600000Y-88400000D01*
X75600000Y-89000000D02*
X76425000Y-89825000D01*
X91200000Y-81050000D02*
X90200000Y-80050000D01*
X91200000Y-81050000D02*
X90750000Y-81050000D01*
X76425000Y-89825000D02*
X77337500Y-89825000D01*
X86800000Y-76200000D02*
X86400000Y-75800000D01*
X85525000Y-74000000D02*
X84650000Y-74000000D01*
X86400000Y-75800000D02*
X86400000Y-74875000D01*
X86400000Y-74875000D02*
X85525000Y-74000000D01*
X90200000Y-80050000D02*
X90200000Y-77200000D01*
X90750000Y-81050000D02*
X84200000Y-87600000D01*
%TO.N,Net-(J9-Pad1)*%
X74000000Y-71200000D02*
X72400000Y-71200000D01*
X76150000Y-72400000D02*
X75200000Y-72400000D01*
X71400000Y-70200000D02*
X71400000Y-69600000D01*
X72400000Y-71200000D02*
X71400000Y-70200000D01*
X75200000Y-72400000D02*
X74000000Y-71200000D01*
%TO.N,/XTAL1*%
X76800000Y-66000000D02*
X76800000Y-64600000D01*
X78400000Y-67600000D02*
X76800000Y-66000000D01*
X78400000Y-68550000D02*
X78400000Y-67600000D01*
%TO.N,/XTAL2*%
X77600000Y-68550000D02*
X75950000Y-68550000D01*
X75950000Y-68550000D02*
X74400000Y-67000000D01*
X74400000Y-67000000D02*
X74400000Y-64600000D01*
%TO.N,Net-(J10-Pad1)*%
X74000000Y-73200000D02*
X72400000Y-71600000D01*
X72400000Y-71600000D02*
X71200000Y-71600000D01*
X71200000Y-71600000D02*
X69600000Y-70000000D01*
X76150000Y-73200000D02*
X74000000Y-73200000D01*
X69600000Y-70000000D02*
X69600000Y-69600000D01*
%TO.N,Net-(J11-Pad1)*%
X70665318Y-72000000D02*
X69865318Y-71200000D01*
X69865318Y-71200000D02*
X68400000Y-71200000D01*
X72200000Y-72000000D02*
X70665318Y-72000000D01*
X74200000Y-74000000D02*
X72200000Y-72000000D01*
X67800000Y-70600000D02*
X67800000Y-69600000D01*
X68400000Y-71200000D02*
X67800000Y-70600000D01*
X76150000Y-74000000D02*
X74200000Y-74000000D01*
%TO.N,Net-(J12-Pad1)*%
X77800000Y-81400000D02*
X77800000Y-82800000D01*
X80000000Y-79200000D02*
X77800000Y-81400000D01*
X80000000Y-77050000D02*
X80000000Y-79200000D01*
%TO.N,Net-(J13-Pad1)*%
X75600000Y-82000000D02*
X75600000Y-82800000D01*
X79200000Y-77050000D02*
X79200000Y-79177817D01*
X76400000Y-81200000D02*
X75600000Y-82000000D01*
X77177817Y-81200000D02*
X76400000Y-81200000D01*
X79200000Y-79177817D02*
X77177817Y-81200000D01*
%TO.N,Net-(J14-Pad1)*%
X81600000Y-77050000D02*
X81600000Y-79200000D01*
X79800000Y-81000000D02*
X79800000Y-82800000D01*
X81600000Y-79200000D02*
X79800000Y-81000000D01*
%TO.N,Net-(J15-Pad1)*%
X84800000Y-70000000D02*
X84650000Y-70000000D01*
X88200000Y-66600000D02*
X84800000Y-70000000D01*
X88200000Y-65600000D02*
X88200000Y-66600000D01*
%TO.N,Net-(J16-Pad1)*%
X86200000Y-65800000D02*
X86400000Y-65600000D01*
X84650000Y-68550000D02*
X86200000Y-67000000D01*
X83200000Y-68550000D02*
X84650000Y-68550000D01*
X86200000Y-67000000D02*
X86200000Y-65800000D01*
%TO.N,Net-(J17-Pad1)*%
X82600000Y-67200000D02*
X83800000Y-67200000D01*
X83800000Y-67200000D02*
X84200000Y-66800000D01*
X82400000Y-68550000D02*
X82400000Y-67400000D01*
X84200000Y-66800000D02*
X84200000Y-65600000D01*
X82400000Y-67400000D02*
X82600000Y-67200000D01*
%TO.N,Net-(J18-Pad1)*%
X76150000Y-71600000D02*
X75200000Y-71600000D01*
X75200000Y-71600000D02*
X73200000Y-69600000D01*
%TO.N,Net-(R9-Pad1)*%
X89550000Y-73200000D02*
X84650000Y-73200000D01*
%TD*%
%TA.AperFunction,Conductor*%
%TO.N,VDD*%
G36*
X67580870Y-51020502D02*
G01*
X67627363Y-51074158D01*
X67637467Y-51144432D01*
X67607973Y-51209012D01*
X67552626Y-51246023D01*
X67461637Y-51276380D01*
X67448453Y-51282556D01*
X67312196Y-51366874D01*
X67300795Y-51375910D01*
X67187582Y-51489321D01*
X67178570Y-51500732D01*
X67094484Y-51637146D01*
X67088337Y-51650327D01*
X67037749Y-51802843D01*
X67034882Y-51816219D01*
X67025328Y-51909466D01*
X67025000Y-51915883D01*
X67025000Y-52006885D01*
X67029475Y-52022124D01*
X67030865Y-52023329D01*
X67038548Y-52025000D01*
X69756884Y-52025000D01*
X69772123Y-52020525D01*
X69773328Y-52019135D01*
X69774999Y-52011452D01*
X69774999Y-51915933D01*
X69774661Y-51909413D01*
X69764860Y-51814940D01*
X69761969Y-51801549D01*
X69711118Y-51649132D01*
X69704944Y-51635953D01*
X69620626Y-51499696D01*
X69611590Y-51488295D01*
X69498179Y-51375082D01*
X69486768Y-51366070D01*
X69350354Y-51281984D01*
X69337173Y-51275837D01*
X69247498Y-51246093D01*
X69189139Y-51205662D01*
X69161902Y-51140098D01*
X69174436Y-51070216D01*
X69222760Y-51018205D01*
X69287166Y-51000500D01*
X71237908Y-51000500D01*
X71306029Y-51020502D01*
X71352522Y-51074158D01*
X71362626Y-51144432D01*
X71333132Y-51209012D01*
X71313472Y-51227327D01*
X71299990Y-51237431D01*
X71287430Y-51249991D01*
X71212299Y-51350237D01*
X71203767Y-51365823D01*
X71159414Y-51484133D01*
X71155789Y-51499379D01*
X71150369Y-51549271D01*
X71150000Y-51556085D01*
X71150000Y-52581885D01*
X71154475Y-52597124D01*
X71155865Y-52598329D01*
X71163548Y-52600000D01*
X74431885Y-52600000D01*
X74447124Y-52595525D01*
X74448329Y-52594135D01*
X74450000Y-52586452D01*
X74450000Y-51556085D01*
X74449631Y-51549271D01*
X74444211Y-51499379D01*
X74440586Y-51484133D01*
X74396233Y-51365823D01*
X74387701Y-51350237D01*
X74312570Y-51249991D01*
X74300010Y-51237431D01*
X74286528Y-51227327D01*
X74244012Y-51170468D01*
X74238986Y-51099650D01*
X74273045Y-51037356D01*
X74335376Y-51003365D01*
X74362092Y-51000500D01*
X78386854Y-51000500D01*
X78454975Y-51020502D01*
X78501468Y-51074158D01*
X78511572Y-51144432D01*
X78510054Y-51152916D01*
X78509882Y-51153720D01*
X78500328Y-51246966D01*
X78500000Y-51253383D01*
X78500000Y-52531885D01*
X78504475Y-52547124D01*
X78505865Y-52548329D01*
X78513548Y-52550000D01*
X81081884Y-52550000D01*
X81097123Y-52545525D01*
X81098328Y-52544135D01*
X81099999Y-52536452D01*
X81099999Y-51253433D01*
X81099661Y-51246913D01*
X81089149Y-51145584D01*
X81090559Y-51145438D01*
X81095177Y-51082281D01*
X81137813Y-51025513D01*
X81204373Y-51000807D01*
X81213163Y-51000500D01*
X87274000Y-51000500D01*
X87342121Y-51020502D01*
X87388614Y-51074158D01*
X87400000Y-51126500D01*
X87400000Y-52424000D01*
X87379998Y-52492121D01*
X87326342Y-52538614D01*
X87274000Y-52550000D01*
X86768115Y-52550000D01*
X86752876Y-52554475D01*
X86751671Y-52555865D01*
X86750000Y-52563548D01*
X86750000Y-55531885D01*
X86754475Y-55547124D01*
X86755865Y-55548329D01*
X86763548Y-55550000D01*
X87165500Y-55550000D01*
X87233621Y-55570002D01*
X87280114Y-55623658D01*
X87291500Y-55676000D01*
X87291500Y-56274000D01*
X87271498Y-56342121D01*
X87217842Y-56388614D01*
X87165500Y-56400000D01*
X83406975Y-56400000D01*
X83393061Y-56399229D01*
X83297526Y-56388614D01*
X81892885Y-56232543D01*
X81869553Y-56227682D01*
X81803768Y-56207318D01*
X81797643Y-56206674D01*
X81797642Y-56206674D01*
X81613204Y-56187289D01*
X81613202Y-56187289D01*
X81607075Y-56186645D01*
X81549783Y-56191859D01*
X81524457Y-56191606D01*
X80787061Y-56109673D01*
X79803852Y-56000428D01*
X79796205Y-55999340D01*
X75200000Y-55200000D01*
X70526000Y-55200000D01*
X70457879Y-55179998D01*
X70411386Y-55126342D01*
X70404332Y-55093915D01*
X85250000Y-55093915D01*
X85250369Y-55100729D01*
X85255789Y-55150621D01*
X85259414Y-55165867D01*
X85303767Y-55284177D01*
X85312299Y-55299763D01*
X85387430Y-55400009D01*
X85399991Y-55412570D01*
X85500237Y-55487701D01*
X85515823Y-55496233D01*
X85634133Y-55540586D01*
X85649379Y-55544211D01*
X85699271Y-55549631D01*
X85706085Y-55550000D01*
X86231885Y-55550000D01*
X86247124Y-55545525D01*
X86248329Y-55544135D01*
X86250000Y-55536452D01*
X86250000Y-54318115D01*
X86245525Y-54302876D01*
X86244135Y-54301671D01*
X86236452Y-54300000D01*
X85268115Y-54300000D01*
X85252876Y-54304475D01*
X85251671Y-54305865D01*
X85250000Y-54313548D01*
X85250000Y-55093915D01*
X70404332Y-55093915D01*
X70400000Y-55074000D01*
X70400000Y-54143915D01*
X71150000Y-54143915D01*
X71150369Y-54150729D01*
X71155789Y-54200621D01*
X71159414Y-54215867D01*
X71203767Y-54334177D01*
X71212299Y-54349763D01*
X71287430Y-54450009D01*
X71299991Y-54462570D01*
X71400237Y-54537701D01*
X71415823Y-54546233D01*
X71534133Y-54590586D01*
X71549379Y-54594211D01*
X71599271Y-54599631D01*
X71606085Y-54600000D01*
X72531885Y-54600000D01*
X72547124Y-54595525D01*
X72548329Y-54594135D01*
X72550000Y-54586452D01*
X72550000Y-54581885D01*
X73050000Y-54581885D01*
X73054475Y-54597124D01*
X73055865Y-54598329D01*
X73063548Y-54600000D01*
X73993915Y-54600000D01*
X74000729Y-54599631D01*
X74050621Y-54594211D01*
X74065867Y-54590586D01*
X74184177Y-54546233D01*
X74199763Y-54537701D01*
X74300009Y-54462570D01*
X74312570Y-54450009D01*
X74387701Y-54349763D01*
X74389451Y-54346567D01*
X78500001Y-54346567D01*
X78500339Y-54353087D01*
X78510140Y-54447560D01*
X78513031Y-54460951D01*
X78563882Y-54613368D01*
X78570056Y-54626547D01*
X78654374Y-54762804D01*
X78663410Y-54774205D01*
X78776821Y-54887418D01*
X78788232Y-54896430D01*
X78924646Y-54980516D01*
X78937827Y-54986663D01*
X79090343Y-55037251D01*
X79103719Y-55040118D01*
X79196966Y-55049672D01*
X79203382Y-55050000D01*
X79531885Y-55050000D01*
X79547124Y-55045525D01*
X79548329Y-55044135D01*
X79550000Y-55036452D01*
X79550000Y-55031884D01*
X80050000Y-55031884D01*
X80054475Y-55047123D01*
X80055865Y-55048328D01*
X80063548Y-55049999D01*
X80396567Y-55049999D01*
X80403087Y-55049661D01*
X80497560Y-55039860D01*
X80510951Y-55036969D01*
X80663368Y-54986118D01*
X80676547Y-54979944D01*
X80812804Y-54895626D01*
X80824205Y-54886590D01*
X80937418Y-54773179D01*
X80946430Y-54761768D01*
X81030516Y-54625354D01*
X81036663Y-54612173D01*
X81087251Y-54459657D01*
X81090118Y-54446281D01*
X81099672Y-54353034D01*
X81100000Y-54346618D01*
X81100000Y-53781885D01*
X85250000Y-53781885D01*
X85254475Y-53797124D01*
X85255865Y-53798329D01*
X85263548Y-53800000D01*
X86231885Y-53800000D01*
X86247124Y-53795525D01*
X86248329Y-53794135D01*
X86250000Y-53786452D01*
X86250000Y-52568115D01*
X86245525Y-52552876D01*
X86244135Y-52551671D01*
X86236452Y-52550000D01*
X85706085Y-52550000D01*
X85699271Y-52550369D01*
X85649379Y-52555789D01*
X85634133Y-52559414D01*
X85515823Y-52603767D01*
X85500237Y-52612299D01*
X85399991Y-52687430D01*
X85387430Y-52699991D01*
X85312299Y-52800237D01*
X85303767Y-52815823D01*
X85259414Y-52934133D01*
X85255789Y-52949379D01*
X85250369Y-52999271D01*
X85250000Y-53006085D01*
X85250000Y-53781885D01*
X81100000Y-53781885D01*
X81100000Y-53068115D01*
X81095525Y-53052876D01*
X81094135Y-53051671D01*
X81086452Y-53050000D01*
X80068115Y-53050000D01*
X80052876Y-53054475D01*
X80051671Y-53055865D01*
X80050000Y-53063548D01*
X80050000Y-55031884D01*
X79550000Y-55031884D01*
X79550000Y-53068115D01*
X79545525Y-53052876D01*
X79544135Y-53051671D01*
X79536452Y-53050000D01*
X78518116Y-53050000D01*
X78502877Y-53054475D01*
X78501672Y-53055865D01*
X78500001Y-53063548D01*
X78500001Y-54346567D01*
X74389451Y-54346567D01*
X74396233Y-54334177D01*
X74440586Y-54215867D01*
X74444211Y-54200621D01*
X74449631Y-54150729D01*
X74450000Y-54143915D01*
X74450000Y-53118115D01*
X74445525Y-53102876D01*
X74444135Y-53101671D01*
X74436452Y-53100000D01*
X73068115Y-53100000D01*
X73052876Y-53104475D01*
X73051671Y-53105865D01*
X73050000Y-53113548D01*
X73050000Y-54581885D01*
X72550000Y-54581885D01*
X72550000Y-53118115D01*
X72545525Y-53102876D01*
X72544135Y-53101671D01*
X72536452Y-53100000D01*
X71168115Y-53100000D01*
X71152876Y-53104475D01*
X71151671Y-53105865D01*
X71150000Y-53113548D01*
X71150000Y-54143915D01*
X70400000Y-54143915D01*
X70400000Y-53800000D01*
X66726000Y-53800000D01*
X66657879Y-53779998D01*
X66611386Y-53726342D01*
X66600000Y-53674000D01*
X66600000Y-52634067D01*
X67025001Y-52634067D01*
X67025339Y-52640587D01*
X67035140Y-52735060D01*
X67038031Y-52748451D01*
X67088882Y-52900868D01*
X67095056Y-52914047D01*
X67179374Y-53050304D01*
X67188410Y-53061705D01*
X67301821Y-53174918D01*
X67313232Y-53183930D01*
X67449646Y-53268016D01*
X67462827Y-53274163D01*
X67615343Y-53324751D01*
X67628719Y-53327618D01*
X67721966Y-53337172D01*
X67728382Y-53337500D01*
X68131885Y-53337500D01*
X68147124Y-53333025D01*
X68148329Y-53331635D01*
X68150000Y-53323952D01*
X68150000Y-53319384D01*
X68650000Y-53319384D01*
X68654475Y-53334623D01*
X68655865Y-53335828D01*
X68663548Y-53337499D01*
X69071567Y-53337499D01*
X69078087Y-53337161D01*
X69172560Y-53327360D01*
X69185951Y-53324469D01*
X69338368Y-53273618D01*
X69351547Y-53267444D01*
X69487804Y-53183126D01*
X69499205Y-53174090D01*
X69612418Y-53060679D01*
X69621430Y-53049268D01*
X69705516Y-52912854D01*
X69711663Y-52899673D01*
X69762251Y-52747157D01*
X69765118Y-52733781D01*
X69774672Y-52640534D01*
X69775000Y-52634118D01*
X69775000Y-52543115D01*
X69770525Y-52527876D01*
X69769135Y-52526671D01*
X69761452Y-52525000D01*
X68668115Y-52525000D01*
X68652876Y-52529475D01*
X68651671Y-52530865D01*
X68650000Y-52538548D01*
X68650000Y-53319384D01*
X68150000Y-53319384D01*
X68150000Y-52543115D01*
X68145525Y-52527876D01*
X68144135Y-52526671D01*
X68136452Y-52525000D01*
X67043116Y-52525000D01*
X67027877Y-52529475D01*
X67026672Y-52530865D01*
X67025001Y-52538548D01*
X67025001Y-52634067D01*
X66600000Y-52634067D01*
X66600000Y-51126500D01*
X66620002Y-51058379D01*
X66673658Y-51011886D01*
X66726000Y-51000500D01*
X67512749Y-51000500D01*
X67580870Y-51020502D01*
G37*
%TD.AperFunction*%
%TD*%
%TA.AperFunction,Conductor*%
%TO.N,VCC*%
G36*
X93242691Y-57020002D02*
G01*
X93289184Y-57073658D01*
X93299288Y-57143932D01*
X93281830Y-57192116D01*
X93269484Y-57212146D01*
X93263337Y-57225327D01*
X93212749Y-57377843D01*
X93209882Y-57391219D01*
X93200328Y-57484466D01*
X93200000Y-57490883D01*
X93200000Y-57531885D01*
X93204475Y-57547124D01*
X93205865Y-57548329D01*
X93213548Y-57550000D01*
X95581884Y-57550000D01*
X95597123Y-57545525D01*
X95598328Y-57544135D01*
X95599999Y-57536452D01*
X95599999Y-57490933D01*
X95599661Y-57484413D01*
X95589860Y-57389940D01*
X95586969Y-57376549D01*
X95536118Y-57224132D01*
X95529945Y-57210954D01*
X95518403Y-57192303D01*
X95499565Y-57123852D01*
X95520726Y-57056082D01*
X95575167Y-57010511D01*
X95625547Y-57000000D01*
X96468504Y-57000000D01*
X96534621Y-57018741D01*
X96546030Y-57025774D01*
X96546033Y-57025775D01*
X96552262Y-57029615D01*
X96600296Y-57045547D01*
X96713611Y-57083132D01*
X96713613Y-57083132D01*
X96720139Y-57085297D01*
X96726975Y-57085997D01*
X96726978Y-57085998D01*
X96770031Y-57090409D01*
X96824600Y-57096000D01*
X98775400Y-57096000D01*
X98778644Y-57095663D01*
X98778652Y-57095663D01*
X98860497Y-57087171D01*
X98930318Y-57100036D01*
X98982100Y-57148607D01*
X98999500Y-57212498D01*
X98999500Y-57720949D01*
X98979498Y-57789070D01*
X98925842Y-57835563D01*
X98860658Y-57846293D01*
X98778034Y-57837828D01*
X98771617Y-57837500D01*
X98068115Y-57837500D01*
X98052876Y-57841975D01*
X98051671Y-57843365D01*
X98050000Y-57851048D01*
X98050000Y-60144384D01*
X98054475Y-60159623D01*
X98055865Y-60160828D01*
X98063548Y-60162499D01*
X98771567Y-60162499D01*
X98778088Y-60162161D01*
X98860498Y-60153612D01*
X98930319Y-60166478D01*
X98982101Y-60215049D01*
X98999500Y-60278939D01*
X98999500Y-68074000D01*
X98979498Y-68142121D01*
X98925842Y-68188614D01*
X98873500Y-68200000D01*
X87764739Y-68200000D01*
X87696618Y-68179998D01*
X87650125Y-68126342D01*
X87640021Y-68056068D01*
X87669515Y-67991488D01*
X87675644Y-67984905D01*
X88526411Y-67134138D01*
X88588723Y-67100112D01*
X88596090Y-67098933D01*
X88599312Y-67098237D01*
X88606166Y-67097526D01*
X88612702Y-67095345D01*
X88612704Y-67095345D01*
X88766998Y-67043868D01*
X88773946Y-67041550D01*
X88924348Y-66948478D01*
X89049305Y-66823303D01*
X89142115Y-66672738D01*
X89197797Y-66504861D01*
X89200054Y-66482838D01*
X89208172Y-66403598D01*
X89208500Y-66400400D01*
X89208500Y-64799600D01*
X89208163Y-64796350D01*
X89198238Y-64700692D01*
X89198237Y-64700688D01*
X89197526Y-64693834D01*
X89141550Y-64526054D01*
X89048478Y-64375652D01*
X88923303Y-64250695D01*
X88917072Y-64246854D01*
X88778968Y-64161725D01*
X88778966Y-64161724D01*
X88772738Y-64157885D01*
X88612254Y-64104655D01*
X88611389Y-64104368D01*
X88611387Y-64104368D01*
X88604861Y-64102203D01*
X88598025Y-64101503D01*
X88598022Y-64101502D01*
X88554969Y-64097091D01*
X88500400Y-64091500D01*
X87899600Y-64091500D01*
X87896354Y-64091837D01*
X87896350Y-64091837D01*
X87800692Y-64101762D01*
X87800688Y-64101763D01*
X87793834Y-64102474D01*
X87787298Y-64104655D01*
X87787296Y-64104655D01*
X87655194Y-64148728D01*
X87626054Y-64158450D01*
X87475652Y-64251522D01*
X87350695Y-64376697D01*
X87346855Y-64382927D01*
X87346854Y-64382928D01*
X87307255Y-64447170D01*
X87254483Y-64494663D01*
X87184411Y-64506087D01*
X87119288Y-64477813D01*
X87092851Y-64447358D01*
X87092735Y-64447170D01*
X87048478Y-64375652D01*
X86923303Y-64250695D01*
X86917072Y-64246854D01*
X86778968Y-64161725D01*
X86778966Y-64161724D01*
X86772738Y-64157885D01*
X86612254Y-64104655D01*
X86611389Y-64104368D01*
X86611387Y-64104368D01*
X86604861Y-64102203D01*
X86598025Y-64101503D01*
X86598022Y-64101502D01*
X86554969Y-64097091D01*
X86500400Y-64091500D01*
X85899600Y-64091500D01*
X85896354Y-64091837D01*
X85896350Y-64091837D01*
X85800692Y-64101762D01*
X85800688Y-64101763D01*
X85793834Y-64102474D01*
X85787298Y-64104655D01*
X85787296Y-64104655D01*
X85655194Y-64148728D01*
X85626054Y-64158450D01*
X85475652Y-64251522D01*
X85350695Y-64376697D01*
X85346855Y-64382927D01*
X85346854Y-64382928D01*
X85307255Y-64447170D01*
X85254483Y-64494663D01*
X85184411Y-64506087D01*
X85119288Y-64477813D01*
X85092851Y-64447358D01*
X85092735Y-64447170D01*
X85048478Y-64375652D01*
X84923303Y-64250695D01*
X84917072Y-64246854D01*
X84778968Y-64161725D01*
X84778966Y-64161724D01*
X84772738Y-64157885D01*
X84612254Y-64104655D01*
X84611389Y-64104368D01*
X84611387Y-64104368D01*
X84604861Y-64102203D01*
X84598025Y-64101503D01*
X84598022Y-64101502D01*
X84554969Y-64097091D01*
X84500400Y-64091500D01*
X83899600Y-64091500D01*
X83896354Y-64091837D01*
X83896350Y-64091837D01*
X83800692Y-64101762D01*
X83800688Y-64101763D01*
X83793834Y-64102474D01*
X83787298Y-64104655D01*
X83787296Y-64104655D01*
X83655194Y-64148728D01*
X83626054Y-64158450D01*
X83475652Y-64251522D01*
X83350695Y-64376697D01*
X83346855Y-64382927D01*
X83346854Y-64382928D01*
X83270938Y-64506087D01*
X83257885Y-64527262D01*
X83202203Y-64695139D01*
X83201503Y-64701975D01*
X83201502Y-64701978D01*
X83197091Y-64745031D01*
X83191500Y-64799600D01*
X83191500Y-65274000D01*
X83171498Y-65342121D01*
X83117842Y-65388614D01*
X83065500Y-65400000D01*
X82740746Y-65400000D01*
X82727576Y-65399310D01*
X82613204Y-65387289D01*
X82613202Y-65387289D01*
X82607075Y-65386645D01*
X82467910Y-65399310D01*
X82466031Y-65399481D01*
X82454611Y-65400000D01*
X78926000Y-65400000D01*
X78857879Y-65379998D01*
X78811386Y-65326342D01*
X78800000Y-65274000D01*
X78800000Y-61393915D01*
X86400000Y-61393915D01*
X86400369Y-61400729D01*
X86405789Y-61450621D01*
X86409414Y-61465867D01*
X86453767Y-61584177D01*
X86462299Y-61599763D01*
X86537430Y-61700009D01*
X86549991Y-61712570D01*
X86650237Y-61787701D01*
X86665823Y-61796233D01*
X86784133Y-61840586D01*
X86799379Y-61844211D01*
X86849271Y-61849631D01*
X86856085Y-61850000D01*
X88531885Y-61850000D01*
X88547124Y-61845525D01*
X88548329Y-61844135D01*
X88550000Y-61836452D01*
X88550000Y-61831885D01*
X89050000Y-61831885D01*
X89054475Y-61847124D01*
X89055865Y-61848329D01*
X89063548Y-61850000D01*
X90743915Y-61850000D01*
X90750729Y-61849631D01*
X90800621Y-61844211D01*
X90815867Y-61840586D01*
X90934177Y-61796233D01*
X90949763Y-61787701D01*
X91050009Y-61712570D01*
X91062570Y-61700009D01*
X91137701Y-61599763D01*
X91146233Y-61584177D01*
X91190586Y-61465867D01*
X91194211Y-61450621D01*
X91199631Y-61400729D01*
X91200000Y-61393915D01*
X91200000Y-60618115D01*
X91195525Y-60602876D01*
X91194135Y-60601671D01*
X91186452Y-60600000D01*
X89068115Y-60600000D01*
X89052876Y-60604475D01*
X89051671Y-60605865D01*
X89050000Y-60613548D01*
X89050000Y-61831885D01*
X88550000Y-61831885D01*
X88550000Y-60618115D01*
X88545525Y-60602876D01*
X88544135Y-60601671D01*
X88536452Y-60600000D01*
X86418115Y-60600000D01*
X86402876Y-60604475D01*
X86401671Y-60605865D01*
X86400000Y-60613548D01*
X86400000Y-61393915D01*
X78800000Y-61393915D01*
X78800000Y-61126000D01*
X78820002Y-61057879D01*
X78873658Y-61011386D01*
X78926000Y-61000000D01*
X83800000Y-61000000D01*
X83800000Y-60081885D01*
X86400000Y-60081885D01*
X86404475Y-60097124D01*
X86405865Y-60098329D01*
X86413548Y-60100000D01*
X88531885Y-60100000D01*
X88547124Y-60095525D01*
X88548329Y-60094135D01*
X88550000Y-60086452D01*
X88550000Y-60081885D01*
X89050000Y-60081885D01*
X89054475Y-60097124D01*
X89055865Y-60098329D01*
X89063548Y-60100000D01*
X91181885Y-60100000D01*
X91197124Y-60095525D01*
X91198329Y-60094135D01*
X91200000Y-60086452D01*
X91200000Y-59459067D01*
X96125001Y-59459067D01*
X96125339Y-59465587D01*
X96135140Y-59560060D01*
X96138031Y-59573451D01*
X96188882Y-59725868D01*
X96195056Y-59739047D01*
X96279374Y-59875304D01*
X96288410Y-59886705D01*
X96401821Y-59999918D01*
X96413232Y-60008930D01*
X96549646Y-60093016D01*
X96562827Y-60099163D01*
X96715343Y-60149751D01*
X96728719Y-60152618D01*
X96821966Y-60162172D01*
X96828382Y-60162500D01*
X97531885Y-60162500D01*
X97547124Y-60158025D01*
X97548329Y-60156635D01*
X97550000Y-60148952D01*
X97550000Y-59268115D01*
X97545525Y-59252876D01*
X97544135Y-59251671D01*
X97536452Y-59250000D01*
X96143116Y-59250000D01*
X96127877Y-59254475D01*
X96126672Y-59255865D01*
X96125001Y-59263548D01*
X96125001Y-59459067D01*
X91200000Y-59459067D01*
X91200000Y-59306085D01*
X91199631Y-59299271D01*
X91194211Y-59249379D01*
X91190586Y-59234133D01*
X91146233Y-59115823D01*
X91137701Y-59100237D01*
X91062570Y-58999991D01*
X91050009Y-58987430D01*
X90949763Y-58912299D01*
X90934177Y-58903767D01*
X90815867Y-58859414D01*
X90800621Y-58855789D01*
X90750729Y-58850369D01*
X90743915Y-58850000D01*
X89068115Y-58850000D01*
X89052876Y-58854475D01*
X89051671Y-58855865D01*
X89050000Y-58863548D01*
X89050000Y-60081885D01*
X88550000Y-60081885D01*
X88550000Y-58868115D01*
X88545525Y-58852876D01*
X88544135Y-58851671D01*
X88536452Y-58850000D01*
X86856085Y-58850000D01*
X86849271Y-58850369D01*
X86799379Y-58855789D01*
X86784133Y-58859414D01*
X86665823Y-58903767D01*
X86650237Y-58912299D01*
X86549991Y-58987430D01*
X86537430Y-58999991D01*
X86462299Y-59100237D01*
X86453767Y-59115823D01*
X86409414Y-59234133D01*
X86405789Y-59249379D01*
X86400369Y-59299271D01*
X86400000Y-59306085D01*
X86400000Y-60081885D01*
X83800000Y-60081885D01*
X83800000Y-58109067D01*
X93200001Y-58109067D01*
X93200339Y-58115587D01*
X93210140Y-58210060D01*
X93213031Y-58223451D01*
X93263882Y-58375868D01*
X93270056Y-58389047D01*
X93354374Y-58525304D01*
X93363410Y-58536705D01*
X93476821Y-58649918D01*
X93488232Y-58658930D01*
X93624646Y-58743016D01*
X93637827Y-58749163D01*
X93790343Y-58799751D01*
X93803719Y-58802618D01*
X93896966Y-58812172D01*
X93903382Y-58812500D01*
X94131885Y-58812500D01*
X94147124Y-58808025D01*
X94148329Y-58806635D01*
X94150000Y-58798952D01*
X94150000Y-58794384D01*
X94650000Y-58794384D01*
X94654475Y-58809623D01*
X94655865Y-58810828D01*
X94663548Y-58812499D01*
X94896567Y-58812499D01*
X94903087Y-58812161D01*
X94997560Y-58802360D01*
X95010951Y-58799469D01*
X95163368Y-58748618D01*
X95176547Y-58742444D01*
X95193610Y-58731885D01*
X96125000Y-58731885D01*
X96129475Y-58747124D01*
X96130865Y-58748329D01*
X96138548Y-58750000D01*
X97531885Y-58750000D01*
X97547124Y-58745525D01*
X97548329Y-58744135D01*
X97550000Y-58736452D01*
X97550000Y-57855616D01*
X97545525Y-57840377D01*
X97544135Y-57839172D01*
X97536452Y-57837501D01*
X96828433Y-57837501D01*
X96821913Y-57837839D01*
X96727440Y-57847640D01*
X96714049Y-57850531D01*
X96561632Y-57901382D01*
X96548453Y-57907556D01*
X96412196Y-57991874D01*
X96400795Y-58000910D01*
X96287582Y-58114321D01*
X96278570Y-58125732D01*
X96194484Y-58262146D01*
X96188337Y-58275327D01*
X96137749Y-58427843D01*
X96134882Y-58441219D01*
X96125328Y-58534466D01*
X96125000Y-58540883D01*
X96125000Y-58731885D01*
X95193610Y-58731885D01*
X95312804Y-58658126D01*
X95324205Y-58649090D01*
X95437418Y-58535679D01*
X95446430Y-58524268D01*
X95530516Y-58387854D01*
X95536663Y-58374673D01*
X95587251Y-58222157D01*
X95590118Y-58208781D01*
X95599672Y-58115534D01*
X95600000Y-58109118D01*
X95600000Y-58068115D01*
X95595525Y-58052876D01*
X95594135Y-58051671D01*
X95586452Y-58050000D01*
X94668115Y-58050000D01*
X94652876Y-58054475D01*
X94651671Y-58055865D01*
X94650000Y-58063548D01*
X94650000Y-58794384D01*
X94150000Y-58794384D01*
X94150000Y-58068115D01*
X94145525Y-58052876D01*
X94144135Y-58051671D01*
X94136452Y-58050000D01*
X93218116Y-58050000D01*
X93202877Y-58054475D01*
X93201672Y-58055865D01*
X93200001Y-58063548D01*
X93200001Y-58109067D01*
X83800000Y-58109067D01*
X83800000Y-57126000D01*
X83820002Y-57057879D01*
X83873658Y-57011386D01*
X83926000Y-57000000D01*
X93174570Y-57000000D01*
X93242691Y-57020002D01*
G37*
%TD.AperFunction*%
%TD*%
%TA.AperFunction,Conductor*%
%TO.N,GND*%
G36*
X98941621Y-51020502D02*
G01*
X98988114Y-51074158D01*
X98999500Y-51126500D01*
X98999500Y-54645949D01*
X98979498Y-54714070D01*
X98925842Y-54760563D01*
X98860658Y-54771293D01*
X98778034Y-54762828D01*
X98771617Y-54762500D01*
X98068115Y-54762500D01*
X98052876Y-54766975D01*
X98051671Y-54768365D01*
X98050000Y-54776048D01*
X98050000Y-56049000D01*
X98029998Y-56117121D01*
X97976342Y-56163614D01*
X97924000Y-56175000D01*
X96143116Y-56175000D01*
X96127877Y-56179475D01*
X96126672Y-56180865D01*
X96125001Y-56188548D01*
X96125001Y-56274000D01*
X96104999Y-56342121D01*
X96051343Y-56388614D01*
X95999001Y-56400000D01*
X95726000Y-56400000D01*
X95657879Y-56379998D01*
X95611386Y-56326342D01*
X95600000Y-56274000D01*
X95600000Y-56243115D01*
X95595525Y-56227876D01*
X95594135Y-56226671D01*
X95586452Y-56225000D01*
X93218116Y-56225000D01*
X93202877Y-56229475D01*
X93201672Y-56230865D01*
X93200001Y-56238548D01*
X93200001Y-56274000D01*
X93179999Y-56342121D01*
X93126343Y-56388614D01*
X93074001Y-56400000D01*
X90434500Y-56400000D01*
X90366379Y-56379998D01*
X90319886Y-56326342D01*
X90308500Y-56274000D01*
X90308500Y-55706885D01*
X93200000Y-55706885D01*
X93204475Y-55722124D01*
X93205865Y-55723329D01*
X93213548Y-55725000D01*
X94131885Y-55725000D01*
X94147124Y-55720525D01*
X94148329Y-55719135D01*
X94150000Y-55711452D01*
X94150000Y-55706885D01*
X94650000Y-55706885D01*
X94654475Y-55722124D01*
X94655865Y-55723329D01*
X94663548Y-55725000D01*
X95581884Y-55725000D01*
X95597123Y-55720525D01*
X95598328Y-55719135D01*
X95599999Y-55711452D01*
X95599999Y-55665933D01*
X95599661Y-55659413D01*
X95599399Y-55656885D01*
X96125000Y-55656885D01*
X96129475Y-55672124D01*
X96130865Y-55673329D01*
X96138548Y-55675000D01*
X97531885Y-55675000D01*
X97547124Y-55670525D01*
X97548329Y-55669135D01*
X97550000Y-55661452D01*
X97550000Y-54780616D01*
X97545525Y-54765377D01*
X97544135Y-54764172D01*
X97536452Y-54762501D01*
X96828433Y-54762501D01*
X96821913Y-54762839D01*
X96727440Y-54772640D01*
X96714049Y-54775531D01*
X96561632Y-54826382D01*
X96548453Y-54832556D01*
X96412196Y-54916874D01*
X96400795Y-54925910D01*
X96287582Y-55039321D01*
X96278570Y-55050732D01*
X96194484Y-55187146D01*
X96188337Y-55200327D01*
X96137749Y-55352843D01*
X96134882Y-55366219D01*
X96125328Y-55459466D01*
X96125000Y-55465883D01*
X96125000Y-55656885D01*
X95599399Y-55656885D01*
X95589860Y-55564940D01*
X95586969Y-55551549D01*
X95536118Y-55399132D01*
X95529944Y-55385953D01*
X95445626Y-55249696D01*
X95436590Y-55238295D01*
X95323179Y-55125082D01*
X95311768Y-55116070D01*
X95175354Y-55031984D01*
X95162173Y-55025837D01*
X95009657Y-54975249D01*
X94996281Y-54972382D01*
X94903034Y-54962828D01*
X94896617Y-54962500D01*
X94668115Y-54962500D01*
X94652876Y-54966975D01*
X94651671Y-54968365D01*
X94650000Y-54976048D01*
X94650000Y-55706885D01*
X94150000Y-55706885D01*
X94150000Y-54980616D01*
X94145525Y-54965377D01*
X94144135Y-54964172D01*
X94136452Y-54962501D01*
X93903433Y-54962501D01*
X93896913Y-54962839D01*
X93802440Y-54972640D01*
X93789049Y-54975531D01*
X93636632Y-55026382D01*
X93623453Y-55032556D01*
X93487196Y-55116874D01*
X93475795Y-55125910D01*
X93362582Y-55239321D01*
X93353570Y-55250732D01*
X93269484Y-55387146D01*
X93263337Y-55400327D01*
X93212749Y-55552843D01*
X93209882Y-55566219D01*
X93200328Y-55659466D01*
X93200000Y-55665883D01*
X93200000Y-55706885D01*
X90308500Y-55706885D01*
X90308500Y-55676000D01*
X90328502Y-55607879D01*
X90382158Y-55561386D01*
X90434500Y-55550000D01*
X90831885Y-55550000D01*
X90847124Y-55545525D01*
X90848329Y-55544135D01*
X90850000Y-55536452D01*
X90850000Y-55531885D01*
X91350000Y-55531885D01*
X91354475Y-55547124D01*
X91355865Y-55548329D01*
X91363548Y-55550000D01*
X91893915Y-55550000D01*
X91900729Y-55549631D01*
X91950621Y-55544211D01*
X91965867Y-55540586D01*
X92084177Y-55496233D01*
X92099763Y-55487701D01*
X92200009Y-55412570D01*
X92212570Y-55400009D01*
X92287701Y-55299763D01*
X92296233Y-55284177D01*
X92340586Y-55165867D01*
X92344211Y-55150621D01*
X92349631Y-55100729D01*
X92350000Y-55093915D01*
X92350000Y-54318115D01*
X92345525Y-54302876D01*
X92344135Y-54301671D01*
X92336452Y-54300000D01*
X91368115Y-54300000D01*
X91352876Y-54304475D01*
X91351671Y-54305865D01*
X91350000Y-54313548D01*
X91350000Y-55531885D01*
X90850000Y-55531885D01*
X90850000Y-53781885D01*
X91350000Y-53781885D01*
X91354475Y-53797124D01*
X91355865Y-53798329D01*
X91363548Y-53800000D01*
X92331885Y-53800000D01*
X92347124Y-53795525D01*
X92348329Y-53794135D01*
X92350000Y-53786452D01*
X92350000Y-53006085D01*
X92349631Y-52999271D01*
X92344211Y-52949379D01*
X92340586Y-52934133D01*
X92296233Y-52815823D01*
X92287701Y-52800237D01*
X92212570Y-52699991D01*
X92200009Y-52687430D01*
X92099763Y-52612299D01*
X92084177Y-52603767D01*
X91965867Y-52559414D01*
X91950621Y-52555789D01*
X91900729Y-52550369D01*
X91893915Y-52550000D01*
X91368115Y-52550000D01*
X91352876Y-52554475D01*
X91351671Y-52555865D01*
X91350000Y-52563548D01*
X91350000Y-53781885D01*
X90850000Y-53781885D01*
X90850000Y-52568115D01*
X90845525Y-52552876D01*
X90844135Y-52551671D01*
X90836452Y-52550000D01*
X90326000Y-52550000D01*
X90257879Y-52529998D01*
X90211386Y-52476342D01*
X90200000Y-52424000D01*
X90200000Y-51126500D01*
X90220002Y-51058379D01*
X90273658Y-51011886D01*
X90326000Y-51000500D01*
X98873500Y-51000500D01*
X98941621Y-51020502D01*
G37*
%TD.AperFunction*%
%TD*%
%TA.AperFunction,Conductor*%
%TO.N,Net-(F1-Pad1)*%
G36*
X65942121Y-51820002D02*
G01*
X65988614Y-51873658D01*
X66000000Y-51926000D01*
X66000000Y-54400000D01*
X66972313Y-54400000D01*
X67040434Y-54420002D01*
X67086927Y-54473658D01*
X67097031Y-54543932D01*
X67089827Y-54568108D01*
X67090642Y-54568378D01*
X67037749Y-54727843D01*
X67034882Y-54741219D01*
X67025328Y-54834466D01*
X67025000Y-54840883D01*
X67025000Y-54931885D01*
X67029475Y-54947124D01*
X67030865Y-54948329D01*
X67038548Y-54950000D01*
X68524000Y-54950000D01*
X68592121Y-54970002D01*
X68638614Y-55023658D01*
X68650000Y-55076000D01*
X68650000Y-56244384D01*
X68654475Y-56259623D01*
X68655865Y-56260828D01*
X68663548Y-56262499D01*
X69071567Y-56262499D01*
X69078087Y-56262161D01*
X69172560Y-56252360D01*
X69185951Y-56249469D01*
X69338368Y-56198618D01*
X69351544Y-56192445D01*
X69407163Y-56158028D01*
X69475615Y-56139191D01*
X69543384Y-56160353D01*
X69588955Y-56214794D01*
X69598680Y-56279217D01*
X69586719Y-56385851D01*
X69587235Y-56391995D01*
X69599263Y-56535233D01*
X69603268Y-56582934D01*
X69604967Y-56588858D01*
X69643196Y-56722178D01*
X69657783Y-56773050D01*
X69660602Y-56778535D01*
X69702046Y-56859175D01*
X69748187Y-56948956D01*
X69752013Y-56953783D01*
X69772746Y-56979942D01*
X69799383Y-57045752D01*
X69800000Y-57058206D01*
X69800000Y-57138527D01*
X69779998Y-57206648D01*
X69770523Y-57219517D01*
X69763846Y-57227474D01*
X69760883Y-57232863D01*
X69760880Y-57232868D01*
X69735419Y-57279182D01*
X69668567Y-57400787D01*
X69608765Y-57589306D01*
X69586719Y-57785851D01*
X69587235Y-57791995D01*
X69599263Y-57935233D01*
X69603268Y-57982934D01*
X69657783Y-58173050D01*
X69680065Y-58216405D01*
X69693413Y-58286135D01*
X69666944Y-58352013D01*
X69609060Y-58393122D01*
X69567999Y-58400000D01*
X62384500Y-58400000D01*
X62316379Y-58379998D01*
X62269886Y-58326342D01*
X62258500Y-58274000D01*
X62258500Y-57543915D01*
X62650000Y-57543915D01*
X62650369Y-57550729D01*
X62655789Y-57600621D01*
X62659414Y-57615867D01*
X62703767Y-57734177D01*
X62712299Y-57749763D01*
X62787430Y-57850009D01*
X62799991Y-57862570D01*
X62900237Y-57937701D01*
X62915823Y-57946233D01*
X63034133Y-57990586D01*
X63049379Y-57994211D01*
X63099271Y-57999631D01*
X63106085Y-58000000D01*
X63881885Y-58000000D01*
X63897124Y-57995525D01*
X63898329Y-57994135D01*
X63900000Y-57986452D01*
X63900000Y-57981885D01*
X64400000Y-57981885D01*
X64404475Y-57997124D01*
X64405865Y-57998329D01*
X64413548Y-58000000D01*
X65193915Y-58000000D01*
X65200729Y-57999631D01*
X65250621Y-57994211D01*
X65265867Y-57990586D01*
X65384177Y-57946233D01*
X65399763Y-57937701D01*
X65500009Y-57862570D01*
X65512570Y-57850009D01*
X65587701Y-57749763D01*
X65596233Y-57734177D01*
X65640586Y-57615867D01*
X65644211Y-57600621D01*
X65649631Y-57550729D01*
X65650000Y-57543915D01*
X65650000Y-55559067D01*
X67025001Y-55559067D01*
X67025339Y-55565587D01*
X67035140Y-55660060D01*
X67038031Y-55673451D01*
X67088882Y-55825868D01*
X67095056Y-55839047D01*
X67179374Y-55975304D01*
X67188410Y-55986705D01*
X67301821Y-56099918D01*
X67313232Y-56108930D01*
X67449646Y-56193016D01*
X67462827Y-56199163D01*
X67615343Y-56249751D01*
X67628719Y-56252618D01*
X67721966Y-56262172D01*
X67728382Y-56262500D01*
X68131885Y-56262500D01*
X68147124Y-56258025D01*
X68148329Y-56256635D01*
X68150000Y-56248952D01*
X68150000Y-55468115D01*
X68145525Y-55452876D01*
X68144135Y-55451671D01*
X68136452Y-55450000D01*
X67043116Y-55450000D01*
X67027877Y-55454475D01*
X67026672Y-55455865D01*
X67025001Y-55463548D01*
X67025001Y-55559067D01*
X65650000Y-55559067D01*
X65650000Y-55468115D01*
X65645525Y-55452876D01*
X65644135Y-55451671D01*
X65636452Y-55450000D01*
X64418115Y-55450000D01*
X64402876Y-55454475D01*
X64401671Y-55455865D01*
X64400000Y-55463548D01*
X64400000Y-57981885D01*
X63900000Y-57981885D01*
X63900000Y-55468115D01*
X63895525Y-55452876D01*
X63894135Y-55451671D01*
X63886452Y-55450000D01*
X62668115Y-55450000D01*
X62652876Y-55454475D01*
X62651671Y-55455865D01*
X62650000Y-55463548D01*
X62650000Y-57543915D01*
X62258500Y-57543915D01*
X62258500Y-57111840D01*
X62259237Y-57098232D01*
X62262659Y-57066736D01*
X62262659Y-57066732D01*
X62263324Y-57060611D01*
X62258950Y-57010609D01*
X62258621Y-57005784D01*
X62258500Y-57003313D01*
X62258500Y-57000231D01*
X62254309Y-56957489D01*
X62254187Y-56956174D01*
X62246623Y-56869719D01*
X62246087Y-56863587D01*
X62244600Y-56858468D01*
X62244080Y-56853167D01*
X62217203Y-56764144D01*
X62216865Y-56763001D01*
X62205004Y-56722178D01*
X62200000Y-56687023D01*
X62200000Y-54931885D01*
X62650000Y-54931885D01*
X62654475Y-54947124D01*
X62655865Y-54948329D01*
X62663548Y-54950000D01*
X63881885Y-54950000D01*
X63897124Y-54945525D01*
X63898329Y-54944135D01*
X63900000Y-54936452D01*
X63900000Y-54931885D01*
X64400000Y-54931885D01*
X64404475Y-54947124D01*
X64405865Y-54948329D01*
X64413548Y-54950000D01*
X65631885Y-54950000D01*
X65647124Y-54945525D01*
X65648329Y-54944135D01*
X65650000Y-54936452D01*
X65650000Y-52856085D01*
X65649631Y-52849271D01*
X65644211Y-52799379D01*
X65640586Y-52784133D01*
X65596233Y-52665823D01*
X65587701Y-52650237D01*
X65512570Y-52549991D01*
X65500009Y-52537430D01*
X65399763Y-52462299D01*
X65384177Y-52453767D01*
X65265867Y-52409414D01*
X65250621Y-52405789D01*
X65200729Y-52400369D01*
X65193915Y-52400000D01*
X64418115Y-52400000D01*
X64402876Y-52404475D01*
X64401671Y-52405865D01*
X64400000Y-52413548D01*
X64400000Y-54931885D01*
X63900000Y-54931885D01*
X63900000Y-52418115D01*
X63895525Y-52402876D01*
X63894135Y-52401671D01*
X63886452Y-52400000D01*
X63106085Y-52400000D01*
X63099271Y-52400369D01*
X63049379Y-52405789D01*
X63034133Y-52409414D01*
X62915823Y-52453767D01*
X62900237Y-52462299D01*
X62799991Y-52537430D01*
X62787430Y-52549991D01*
X62712299Y-52650237D01*
X62703767Y-52665823D01*
X62659414Y-52784133D01*
X62655789Y-52799379D01*
X62650369Y-52849271D01*
X62650000Y-52856085D01*
X62650000Y-54931885D01*
X62200000Y-54931885D01*
X62200000Y-51926000D01*
X62220002Y-51857879D01*
X62273658Y-51811386D01*
X62326000Y-51800000D01*
X65874000Y-51800000D01*
X65942121Y-51820002D01*
G37*
%TD.AperFunction*%
%TD*%
M02*
