%TF.GenerationSoftware,KiCad,Pcbnew,6.0.8-f2edbf62ab~116~ubuntu20.04.1*%
%TF.CreationDate,2022-11-29T14:24:58-06:00*%
%TF.ProjectId,glasses-display,676c6173-7365-4732-9d64-6973706c6179,rev?*%
%TF.SameCoordinates,Original*%
%TF.FileFunction,Soldermask,Top*%
%TF.FilePolarity,Negative*%
%FSLAX46Y46*%
G04 Gerber Fmt 4.6, Leading zero omitted, Abs format (unit mm)*
G04 Created by KiCad (PCBNEW 6.0.8-f2edbf62ab~116~ubuntu20.04.1) date 2022-11-29 14:24:58*
%MOMM*%
%LPD*%
G01*
G04 APERTURE LIST*
G04 Aperture macros list*
%AMRoundRect*
0 Rectangle with rounded corners*
0 $1 Rounding radius*
0 $2 $3 $4 $5 $6 $7 $8 $9 X,Y pos of 4 corners*
0 Add a 4 corners polygon primitive as box body*
4,1,4,$2,$3,$4,$5,$6,$7,$8,$9,$2,$3,0*
0 Add four circle primitives for the rounded corners*
1,1,$1+$1,$2,$3*
1,1,$1+$1,$4,$5*
1,1,$1+$1,$6,$7*
1,1,$1+$1,$8,$9*
0 Add four rect primitives between the rounded corners*
20,1,$1+$1,$2,$3,$4,$5,0*
20,1,$1+$1,$4,$5,$6,$7,0*
20,1,$1+$1,$6,$7,$8,$9,0*
20,1,$1+$1,$8,$9,$2,$3,0*%
G04 Aperture macros list end*
%ADD10RoundRect,0.200000X0.275000X-0.200000X0.275000X0.200000X-0.275000X0.200000X-0.275000X-0.200000X0*%
%ADD11RoundRect,0.200000X-0.275000X0.200000X-0.275000X-0.200000X0.275000X-0.200000X0.275000X0.200000X0*%
%ADD12R,1.500000X2.000000*%
%ADD13R,3.800000X2.000000*%
%ADD14RoundRect,0.250000X0.725000X-0.600000X0.725000X0.600000X-0.725000X0.600000X-0.725000X-0.600000X0*%
%ADD15O,1.950000X1.700000*%
%ADD16R,1.700000X1.700000*%
%ADD17O,1.700000X1.700000*%
%ADD18R,0.450000X0.600000*%
%ADD19RoundRect,0.250000X0.250000X0.750000X-0.250000X0.750000X-0.250000X-0.750000X0.250000X-0.750000X0*%
%ADD20RoundRect,0.250000X-0.750000X0.600000X-0.750000X-0.600000X0.750000X-0.600000X0.750000X0.600000X0*%
%ADD21O,2.000000X1.700000*%
%ADD22RoundRect,0.250000X0.450000X-0.262500X0.450000X0.262500X-0.450000X0.262500X-0.450000X-0.262500X0*%
%ADD23RoundRect,0.250000X-0.550000X1.500000X-0.550000X-1.500000X0.550000X-1.500000X0.550000X1.500000X0*%
%ADD24RoundRect,0.250000X0.925000X-0.412500X0.925000X0.412500X-0.925000X0.412500X-0.925000X-0.412500X0*%
%ADD25R,0.550000X1.600000*%
%ADD26R,1.600000X0.550000*%
%ADD27RoundRect,0.250000X-0.250000X-0.750000X0.250000X-0.750000X0.250000X0.750000X-0.250000X0.750000X0*%
%ADD28RoundRect,0.200000X-0.200000X-0.275000X0.200000X-0.275000X0.200000X0.275000X-0.200000X0.275000X0*%
%ADD29RoundRect,0.100000X-0.637500X-0.100000X0.637500X-0.100000X0.637500X0.100000X-0.637500X0.100000X0*%
%ADD30RoundRect,0.250000X0.625000X-0.312500X0.625000X0.312500X-0.625000X0.312500X-0.625000X-0.312500X0*%
%ADD31R,0.400000X3.200000*%
%ADD32R,2.300000X2.500000*%
%ADD33R,2.000000X4.600000*%
%ADD34O,2.000000X4.200000*%
%ADD35O,4.200000X2.000000*%
%ADD36RoundRect,0.200000X0.200000X0.275000X-0.200000X0.275000X-0.200000X-0.275000X0.200000X-0.275000X0*%
%ADD37RoundRect,0.218750X-0.218750X-0.256250X0.218750X-0.256250X0.218750X0.256250X-0.218750X0.256250X0*%
%ADD38RoundRect,0.250000X-0.725000X0.600000X-0.725000X-0.600000X0.725000X-0.600000X0.725000X0.600000X0*%
G04 APERTURE END LIST*
D10*
%TO.C,R1*%
X72400000Y-80625000D03*
X72400000Y-78975000D03*
%TD*%
D11*
%TO.C,C7*%
X70200000Y-78975000D03*
X70200000Y-80625000D03*
%TD*%
D12*
%TO.C,U1*%
X91100000Y-54050000D03*
X88800000Y-54050000D03*
D13*
X88800000Y-60350000D03*
D12*
X86500000Y-54050000D03*
%TD*%
D14*
%TO.C,J6*%
X96700000Y-80350000D03*
D15*
X96700000Y-77850000D03*
X96700000Y-75350000D03*
X96700000Y-72850000D03*
%TD*%
D16*
%TO.C,J7*%
X71725000Y-76090000D03*
D17*
X71725000Y-73550000D03*
X69185000Y-76090000D03*
X69185000Y-73550000D03*
X66645000Y-76090000D03*
X66645000Y-73550000D03*
%TD*%
D18*
%TO.C,D4*%
X89400000Y-89350000D03*
X89400000Y-91450000D03*
%TD*%
D19*
%TO.C,J12*%
X77600000Y-82800000D03*
%TD*%
D20*
%TO.C,J2*%
X54200000Y-66300000D03*
D21*
X54200000Y-68800000D03*
%TD*%
D10*
%TO.C,R6*%
X87200000Y-81050000D03*
X87200000Y-79400000D03*
%TD*%
D22*
%TO.C,C2*%
X94400000Y-57800000D03*
X94400000Y-55975000D03*
%TD*%
D23*
%TO.C,C1*%
X79800000Y-52800000D03*
X79800000Y-58400000D03*
%TD*%
D24*
%TO.C,C3*%
X97800000Y-59000000D03*
X97800000Y-55925000D03*
%TD*%
D25*
%TO.C,U2*%
X83200000Y-68550000D03*
X82400000Y-68550000D03*
X81600000Y-68550000D03*
X80800000Y-68550000D03*
X80000000Y-68550000D03*
X79200000Y-68550000D03*
X78400000Y-68550000D03*
X77600000Y-68550000D03*
D26*
X76150000Y-70000000D03*
X76150000Y-70800000D03*
X76150000Y-71600000D03*
X76150000Y-72400000D03*
X76150000Y-73200000D03*
X76150000Y-74000000D03*
X76150000Y-74800000D03*
X76150000Y-75600000D03*
D25*
X77600000Y-77050000D03*
X78400000Y-77050000D03*
X79200000Y-77050000D03*
X80000000Y-77050000D03*
X80800000Y-77050000D03*
X81600000Y-77050000D03*
X82400000Y-77050000D03*
X83200000Y-77050000D03*
D26*
X84650000Y-75600000D03*
X84650000Y-74800000D03*
X84650000Y-74000000D03*
X84650000Y-73200000D03*
X84650000Y-72400000D03*
X84650000Y-71600000D03*
X84650000Y-70800000D03*
X84650000Y-70000000D03*
%TD*%
D27*
%TO.C,J14*%
X79800000Y-82800000D03*
%TD*%
D28*
%TO.C,R9*%
X89550000Y-73200000D03*
X91200000Y-73200000D03*
%TD*%
D20*
%TO.C,J4*%
X54300000Y-77000000D03*
D21*
X54300000Y-79500000D03*
%TD*%
D19*
%TO.C,J10*%
X69600000Y-69600000D03*
%TD*%
D27*
%TO.C,J13*%
X75400000Y-82800000D03*
%TD*%
D18*
%TO.C,D7*%
X93100000Y-92950000D03*
X93100000Y-95050000D03*
%TD*%
%TO.C,D8*%
X89400000Y-96550000D03*
X89400000Y-98650000D03*
%TD*%
D14*
%TO.C,J8*%
X96700000Y-96550000D03*
D15*
X96700000Y-94050000D03*
X96700000Y-91550000D03*
X96700000Y-89050000D03*
%TD*%
D29*
%TO.C,U3*%
X77337500Y-88525000D03*
X77337500Y-89175000D03*
X77337500Y-89825000D03*
X77337500Y-90475000D03*
X77337500Y-91125000D03*
X77337500Y-91775000D03*
X77337500Y-92425000D03*
X77337500Y-93075000D03*
X83062500Y-93075000D03*
X83062500Y-92425000D03*
X83062500Y-91775000D03*
X83062500Y-91125000D03*
X83062500Y-90475000D03*
X83062500Y-89825000D03*
X83062500Y-89175000D03*
X83062500Y-88525000D03*
%TD*%
D19*
%TO.C,J11*%
X67800000Y-69600000D03*
%TD*%
D18*
%TO.C,D2*%
X89400000Y-87850000D03*
X89400000Y-85750000D03*
%TD*%
D30*
%TO.C,F1*%
X68400000Y-55200000D03*
X68400000Y-52275000D03*
%TD*%
D10*
%TO.C,R5*%
X83600000Y-83225000D03*
X83600000Y-81575000D03*
%TD*%
D31*
%TO.C,Y1*%
X76800000Y-65000000D03*
X75600000Y-65000000D03*
X74400000Y-65000000D03*
%TD*%
D32*
%TO.C,D1*%
X72800000Y-52850000D03*
X72800000Y-57150000D03*
%TD*%
D20*
%TO.C,J3*%
X61100000Y-66250000D03*
D21*
X61100000Y-68750000D03*
%TD*%
D10*
%TO.C,R7*%
X89200000Y-81050000D03*
X89200000Y-79400000D03*
%TD*%
%TO.C,R8*%
X91200000Y-81050000D03*
X91200000Y-79400000D03*
%TD*%
D33*
%TO.C,J1*%
X64150000Y-55200000D03*
D34*
X57850000Y-55200000D03*
D35*
X61250000Y-60000000D03*
%TD*%
D36*
%TO.C,C5*%
X79450000Y-94800000D03*
X77800000Y-94800000D03*
%TD*%
D19*
%TO.C,J18*%
X73200000Y-69600000D03*
%TD*%
D28*
%TO.C,C4*%
X79600000Y-66400000D03*
X81250000Y-66400000D03*
%TD*%
%TO.C,R2*%
X89550000Y-71200000D03*
X91200000Y-71200000D03*
%TD*%
D36*
%TO.C,C8*%
X83050000Y-94800000D03*
X81400000Y-94800000D03*
%TD*%
D18*
%TO.C,D3*%
X93100000Y-85750000D03*
X93100000Y-87850000D03*
%TD*%
D28*
%TO.C,R3*%
X89550000Y-69200000D03*
X91200000Y-69200000D03*
%TD*%
D27*
%TO.C,J16*%
X86200000Y-65600000D03*
%TD*%
D18*
%TO.C,D5*%
X93100000Y-91450000D03*
X93100000Y-89350000D03*
%TD*%
D37*
%TO.C,D10*%
X89625000Y-75200000D03*
X91200000Y-75200000D03*
%TD*%
D27*
%TO.C,J17*%
X84200000Y-65600000D03*
%TD*%
D10*
%TO.C,R4*%
X81600000Y-83250000D03*
X81600000Y-81600000D03*
%TD*%
D18*
%TO.C,D6*%
X89400000Y-95050000D03*
X89400000Y-92950000D03*
%TD*%
D10*
%TO.C,C6*%
X75600000Y-80425000D03*
X75600000Y-78775000D03*
%TD*%
D19*
%TO.C,J9*%
X71400000Y-69600000D03*
%TD*%
D18*
%TO.C,D9*%
X93100000Y-98650000D03*
X93100000Y-96550000D03*
%TD*%
D27*
%TO.C,J15*%
X88200000Y-65600000D03*
%TD*%
D38*
%TO.C,J5*%
X54300000Y-87400000D03*
D15*
X54300000Y-89900000D03*
X54300000Y-92400000D03*
X54300000Y-94900000D03*
%TD*%
M02*
